<svg width="32" height="32" viewBox="0 0 32 32" fill="none" xmlns="http://www.w3.org/2000/svg">
<path d="M11.9238 23.9248C11.3509 23.9248 10.9033 23.7637 10.5811 23.4414C10.266 23.1191 10.1084 22.6644 10.1084 22.0771V10.4219C10.1084 9.82747 10.266 9.36914 10.5811 9.04688C10.9033 8.72461 11.3509 8.56348 11.9238 8.56348H17.3701C18.3656 8.56348 19.2214 8.72103 19.9375 9.03613C20.6536 9.34408 21.2051 9.78809 21.5918 10.3682C21.9857 10.9482 22.1826 11.6357 22.1826 12.4307C22.1826 12.9964 22.0573 13.5156 21.8066 13.9883C21.556 14.4538 21.2051 14.8405 20.7539 15.1484C20.3027 15.4492 19.7799 15.6426 19.1855 15.7285V15.8145C19.916 15.8503 20.557 16.0329 21.1084 16.3623C21.667 16.6917 22.1003 17.1286 22.4082 17.6729C22.7233 18.2171 22.8809 18.8402 22.8809 19.542C22.8809 20.43 22.6624 21.2035 22.2256 21.8623C21.7887 22.514 21.1693 23.0225 20.3672 23.3877C19.5651 23.7458 18.6162 23.9248 17.5205 23.9248H11.9238ZM13.6533 21.4434H16.4248C17.3486 21.4434 18.054 21.2607 18.541 20.8955C19.0352 20.5231 19.2822 19.986 19.2822 19.2842C19.2822 18.5967 19.028 18.0739 18.5195 17.7158C18.0182 17.3577 17.2949 17.1787 16.3496 17.1787H13.6533V21.4434ZM13.6533 14.9443H16.0273C16.8652 14.9443 17.5169 14.7689 17.9824 14.418C18.4551 14.0671 18.6914 13.5801 18.6914 12.957C18.6914 12.3698 18.4801 11.9115 18.0576 11.582C17.6351 11.2526 17.0479 11.0879 16.2959 11.0879H13.6533V14.9443Z" fill="black" style="fill:black;fill-opacity:1;"/>
</svg>
