<svg width="24" height="24" viewBox="0 0 24 24" fill="none" xmlns="http://www.w3.org/2000/svg">
<g clip-path="url(#clip0_1294_2078)">
<path fill-rule="evenodd" clip-rule="evenodd" d="M10.9091 11.9591C10.278 12.2587 9.54709 12.394 8.76728 12.3985C9.50654 12.4003 10.2241 12.4523 10.9091 12.5605C7.14496 13.1554 4.36364 15.4494 4.36364 20.4544H0C0 14.5386 3.88573 12.4102 8.68726 12.3985C6.29572 12.3848 4.36364 11.1406 4.36364 7.6993C4.36364 4.23883 6.3173 3 8.72727 3C9.52208 3 10.2673 3.13475 10.9091 3.43949C9.6048 4.05878 8.72727 5.3801 8.72727 7.6993C8.72727 10.0185 9.6048 11.3398 10.9091 11.9591Z" fill="#1A1818"/>
<path fill-rule="evenodd" clip-rule="evenodd" d="M15.3127 12.3985C17.7043 12.3848 19.6364 11.1406 19.6364 7.6993C19.6364 4.23883 17.6827 3 15.2727 3C12.8628 3 10.9091 4.23883 10.9091 7.6993C10.9091 11.1406 12.8412 12.3848 15.2327 12.3985C10.4312 12.4102 6.54546 14.5386 6.54546 20.4544H24C24 14.5386 20.1143 12.4102 15.3127 12.3985Z" fill="#1A1818"/>
</g>
<defs>
<clipPath id="clip0_1294_2078">
<rect width="24" height="24" fill="white"/>
</clipPath>
</defs>
</svg>
