<svg width="24" height="24" viewBox="0 0 24 24" fill="none" xmlns="http://www.w3.org/2000/svg">
<path d="M12.9363 18.9622L12.8715 18.1649C12.7458 18.1751 12.6244 18.2149 12.5171 18.2809L12.9363 18.9622ZM8.97581 18.5847L9.74503 18.8044C9.86622 18.3803 9.62118 17.938 9.19728 17.8159L8.97581 18.5847ZM8 22L7.23078 21.7802C7.1401 22.0976 7.25365 22.4381 7.51667 22.6375C7.77968 22.8369 8.13817 22.8543 8.41928 22.6813L8 22ZM20.2 11C20.2 15.041 17.0867 17.8219 12.8715 18.1649L13.0012 19.7596C17.8471 19.3653 21.8 16.0609 21.8 11H20.2ZM12 3.8C16.6509 3.8 20.2 6.69471 20.2 11H21.8C21.8 5.58508 17.2902 2.2 12 2.2V3.8ZM3.8 11C3.8 6.69471 7.3491 3.8 12 3.8V2.2C6.70977 2.2 2.2 5.58508 2.2 11H3.8ZM9.19728 17.8159C6.00302 16.8957 3.8 14.4131 3.8 11H2.2C2.2 15.2324 4.98274 18.2668 8.75434 19.3534L9.19728 17.8159ZM8.76922 22.2198L9.74503 18.8044L8.2066 18.3649L7.23078 21.7802L8.76922 22.2198ZM12.5171 18.2809L7.58072 21.3187L8.41928 22.6813L13.3556 19.6436L12.5171 18.2809Z" fill="#1A1818"/>
</svg>
