<svg width="32" height="32" viewBox="0 0 32 32" fill="none" xmlns="http://www.w3.org/2000/svg">
<path d="M23.1494 24.2471C23.7008 24.2471 24.2308 24.154 24.7393 23.9678C25.2477 23.7744 25.6989 23.5059 26.0928 23.1621C26.4867 22.8184 26.7946 22.4137 27.0166 21.9482H27.0596V23.3662C27.0596 23.6383 27.1419 23.8532 27.3066 24.0107C27.4714 24.1755 27.679 24.2578 27.9297 24.2578C28.1875 24.2578 28.3988 24.1755 28.5635 24.0107C28.7282 23.846 28.8105 23.6169 28.8105 23.3232V16.1582C28.8105 15.3776 28.6279 14.7008 28.2627 14.1279C27.9046 13.5479 27.3926 13.1003 26.7266 12.7852C26.0605 12.4629 25.2728 12.3018 24.3633 12.3018C23.3535 12.3018 22.4583 12.5094 21.6777 12.9248C20.8971 13.333 20.3529 13.8844 20.0449 14.5791C19.9805 14.708 19.9303 14.8369 19.8945 14.9658C19.8587 15.0947 19.8408 15.2165 19.8408 15.3311C19.8408 15.5674 19.916 15.7572 20.0664 15.9004C20.224 16.0436 20.4209 16.1152 20.6572 16.1152C20.8219 16.1152 20.9688 16.083 21.0977 16.0186C21.2266 15.9469 21.3304 15.8359 21.4092 15.6855C21.71 15.0625 22.0931 14.6042 22.5586 14.3105C23.0312 14.0098 23.6185 13.8594 24.3203 13.8594C25.1582 13.8594 25.8135 14.0778 26.2861 14.5146C26.7588 14.9515 26.9951 15.5459 26.9951 16.2979V17.2217L23.5254 17.415C22.1647 17.4867 21.1191 17.8232 20.3887 18.4248C19.6582 19.0192 19.293 19.8177 19.293 20.8203C19.293 21.5078 19.4541 22.1094 19.7764 22.625C20.1058 23.1335 20.5605 23.5309 21.1406 23.8174C21.7207 24.1038 22.3903 24.2471 23.1494 24.2471ZM23.5898 22.7539C22.8594 22.7539 22.2686 22.5713 21.8174 22.2061C21.3734 21.8408 21.1514 21.3646 21.1514 20.7773C21.1514 20.2044 21.3734 19.7425 21.8174 19.3916C22.2614 19.0335 22.9059 18.8258 23.751 18.7686L26.9951 18.5645V19.7031C26.9951 20.276 26.8411 20.7917 26.5332 21.25C26.2324 21.7083 25.8242 22.0736 25.3086 22.3457C24.793 22.6178 24.2201 22.7539 23.5898 22.7539ZM5.0918 24.1719C5.37826 24.1719 5.60026 24.111 5.75781 23.9893C5.91536 23.8675 6.04427 23.6562 6.14453 23.3555L7.53027 19.5635H13.8682L15.2539 23.3555C15.3542 23.6562 15.4831 23.8675 15.6406 23.9893C15.7982 24.111 16.0166 24.1719 16.2959 24.1719C16.5824 24.1719 16.8079 24.0931 16.9727 23.9355C17.1445 23.778 17.2305 23.5632 17.2305 23.291C17.2305 23.1263 17.1911 22.9329 17.1123 22.7109L12.0742 9.29395C11.9453 8.96452 11.7699 8.71745 11.5479 8.55273C11.3258 8.38802 11.043 8.30566 10.6992 8.30566C10.0332 8.30566 9.58203 8.63151 9.3457 9.2832L4.30762 22.7217C4.22884 22.9437 4.18945 23.137 4.18945 23.3018C4.18945 23.5739 4.26823 23.7887 4.42578 23.9463C4.59049 24.0967 4.8125 24.1719 5.0918 24.1719ZM8.05664 17.9307L10.667 10.7012H10.7207L13.3311 17.9307H8.05664Z" fill="black"/>
</svg>
