<svg width="33" height="32" viewBox="0 0 33 32" fill="none" xmlns="http://www.w3.org/2000/svg">
<path d="M16.3226 24.2041C15.3415 24.2041 14.4499 24.068 13.6478 23.7959C12.8529 23.5238 12.1869 23.1406 11.6498 22.6465C11.1127 22.1523 10.751 21.5651 10.5648 20.8848C10.5075 20.6914 10.4789 20.4909 10.4789 20.2832C10.4789 20.0039 10.5612 19.7819 10.726 19.6172C10.8978 19.4525 11.127 19.3701 11.4135 19.3701C11.6355 19.3701 11.8109 19.4238 11.9398 19.5312C12.0759 19.6315 12.1941 19.7998 12.2943 20.0361C12.4805 20.5446 12.7634 20.9814 13.1429 21.3467C13.5225 21.7119 13.9808 21.9912 14.5179 22.1846C15.0551 22.3779 15.6566 22.4746 16.3226 22.4746C17.0674 22.4746 17.7263 22.36 18.2992 22.1309C18.8793 21.8945 19.3304 21.5758 19.6527 21.1748C19.9821 20.7738 20.1469 20.3154 20.1469 19.7998C20.1469 19.1553 19.8962 18.6361 19.3949 18.2422C18.9008 17.8483 18.0951 17.5153 16.9779 17.2432L15.0013 16.7705C13.5404 16.4268 12.4662 15.9326 11.7787 15.2881C11.0912 14.6436 10.7474 13.7913 10.7474 12.7314C10.7474 11.8649 10.9838 11.0986 11.4564 10.4326C11.9362 9.75944 12.5951 9.23307 13.433 8.85352C14.2709 8.47396 15.2305 8.28418 16.3119 8.28418C17.2286 8.28418 18.0629 8.42741 18.8148 8.71387C19.5739 8.99316 20.2041 9.37988 20.7054 9.87402C21.2067 10.3682 21.5398 10.9411 21.7045 11.5928C21.726 11.6787 21.7403 11.7646 21.7474 11.8506C21.7618 11.9294 21.7689 12.0081 21.7689 12.0869C21.7689 12.3519 21.6866 12.5632 21.5219 12.7207C21.3643 12.8711 21.1459 12.9463 20.8666 12.9463C20.4655 12.9463 20.1791 12.7458 20.0072 12.3447C19.8282 11.8506 19.5668 11.4316 19.223 11.0879C18.8793 10.737 18.4603 10.472 17.9662 10.293C17.4792 10.1139 16.9278 10.0244 16.3119 10.0244C15.6244 10.0244 15.0157 10.1354 14.4857 10.3574C13.9558 10.5723 13.5368 10.873 13.2289 11.2598C12.9281 11.6465 12.7777 12.0905 12.7777 12.5918C12.7777 13.1862 13.0212 13.666 13.5082 14.0312C13.9952 14.3965 14.7865 14.7116 15.8822 14.9766L17.6332 15.3955C19.223 15.7679 20.376 16.2764 21.0922 16.9209C21.8155 17.5654 22.1771 18.4463 22.1771 19.5635C22.1771 20.4945 21.9336 21.3109 21.4467 22.0127C20.9668 22.7074 20.2901 23.248 19.4164 23.6348C18.5427 24.0143 17.5114 24.2041 16.3226 24.2041ZM7.90076 16.5342C7.77901 16.5342 7.67517 16.4912 7.58923 16.4053C7.5033 16.3193 7.46033 16.2155 7.46033 16.0938C7.46033 15.972 7.5033 15.8682 7.58923 15.7822C7.67517 15.6963 7.77901 15.6533 7.90076 15.6533H24.7552C24.877 15.6533 24.9808 15.6963 25.0668 15.7822C25.1527 15.8682 25.1957 15.972 25.1957 16.0938C25.1957 16.2155 25.1527 16.3193 25.0668 16.4053C24.9808 16.4912 24.877 16.5342 24.7552 16.5342H7.90076Z" fill="black" style="fill:black;fill-opacity:1;"/>
</svg>
