<svg width="32" height="32" viewBox="0 0 32 32" fill="none" xmlns="http://www.w3.org/2000/svg">
<g id="Bang">
<path id="Burst" fill-rule="evenodd" clip-rule="evenodd" d="M16.9 7C16.9 6.50294 16.497 6.1 16 6.1C15.5029 6.1 15.1 6.50294 15.1 7V10C15.1 10.4971 15.5029 10.9 16 10.9C16.497 10.9 16.9 10.4971 16.9 10V7ZM16.9 22C16.9 21.5029 16.497 21.1 16 21.1C15.5029 21.1 15.1 21.5029 15.1 22V25C15.1 25.4971 15.5029 25.9 16 25.9C16.497 25.9 16.9 25.4971 16.9 25V22ZM25.9 16C25.9 16.4971 25.497 16.9 25 16.9H22C21.5029 16.9 21.1 16.4971 21.1 16C21.1 15.5029 21.5029 15.1 22 15.1L25 15.1C25.497 15.1 25.9 15.5029 25.9 16ZM9.99998 16.9C10.497 16.9 10.9 16.4971 10.9 16C10.9 15.5029 10.497 15.1 9.99998 15.1L6.99998 15.1C6.50292 15.1 6.09998 15.5029 6.09998 16C6.09998 16.4971 6.50292 16.9 6.99998 16.9H9.99998ZM23.0003 8.99965C23.3518 9.35112 23.3518 9.92097 23.0003 10.2724L20.879 12.3938C20.5275 12.7452 19.9577 12.7452 19.6062 12.3938C19.2547 12.0423 19.2547 11.4724 19.6062 11.121L21.7275 8.99965C22.079 8.64818 22.6489 8.64818 23.0003 8.99965ZM12.3937 20.8791C12.7452 20.5276 12.7452 19.9578 12.3937 19.6063C12.0422 19.2548 11.4724 19.2548 11.1209 19.6063L8.99958 21.7276C8.64811 22.0791 8.64811 22.6489 8.99958 23.0004C9.35106 23.3519 9.9209 23.3519 10.2724 23.0004L12.3937 20.8791ZM23.0003 23.0003C22.6489 23.3518 22.079 23.3518 21.7275 23.0003L19.6062 20.879C19.2547 20.5276 19.2547 19.9577 19.6062 19.6062C19.9577 19.2548 20.5275 19.2548 20.879 19.6062L23.0003 21.7276C23.3518 22.079 23.3518 22.6489 23.0003 23.0003ZM11.1209 12.3937C11.4724 12.7452 12.0422 12.7452 12.3937 12.3937C12.7452 12.0422 12.7452 11.4724 12.3937 11.1209L10.2724 8.99961C9.9209 8.64814 9.35106 8.64814 8.99958 8.99961C8.64811 9.35108 8.64811 9.92093 8.99958 10.2724L11.1209 12.3937Z" fill="#333333"/>
</g>
</svg>
