<svg width="32" height="32" viewBox="0 0 32 32" fill="none" xmlns="http://www.w3.org/2000/svg">
<g id="Channel: Note">
<path id="Folded Page" d="M8.9 23V18.0377L12.5899 18.5648C14.3369 18.8144 15.9 17.4588 15.9 15.694V6.9H22C23.1598 6.9 24.1 7.8402 24.1 9V23C24.1 24.1598 23.1598 25.1 22 25.1H11C9.8402 25.1 8.9 24.1598 8.9 23ZM14.1 7.0081V15.694C14.1 16.3634 13.5071 16.8776 12.8444 16.7829L8.9 16.2194V15.7774C8.9 15.4205 8.99095 15.0695 9.16427 14.7575L12.9295 7.98015C13.1883 7.51423 13.6095 7.17197 14.1 7.0081Z" stroke="#333333" stroke-width="1.8"/>
</g>
</svg>
