<svg width="32" height="32" viewBox="0 0 32 32" fill="none" xmlns="http://www.w3.org/2000/svg">
<g id="Channel">
<path id="Hash" fill-rule="evenodd" clip-rule="evenodd" d="M15.8731 8.21828C15.9937 7.73607 15.7005 7.24743 15.2183 7.12687C14.7361 7.00632 14.2474 7.2995 14.1269 7.78172L13.0473 12.1H10C9.50295 12.1 9.10001 12.5029 9.10001 13C9.10001 13.4971 9.50295 13.9 10 13.9H12.5973L11.5473 18.1H8.00001C7.50295 18.1 7.10001 18.5029 7.10001 19C7.10001 19.4971 7.50295 19.9 8.00001 19.9H11.0973L10.1269 23.7817C10.0063 24.2639 10.2995 24.7526 10.7817 24.8731C11.2639 24.9937 11.7526 24.7005 11.8731 24.2183L12.9527 19.9H17.0973L16.1269 23.7817C16.0063 24.2639 16.2995 24.7526 16.7817 24.8731C17.2639 24.9937 17.7526 24.7005 17.8731 24.2183L18.9527 19.9H22C22.4971 19.9 22.9 19.4971 22.9 19C22.9 18.5029 22.4971 18.1 22 18.1H19.4027L20.4527 13.9H24C24.4971 13.9 24.9 13.4971 24.9 13C24.9 12.5029 24.4971 12.1 24 12.1H20.9027L21.8731 8.21828C21.9937 7.73607 21.7005 7.24743 21.2183 7.12687C20.7361 7.00632 20.2474 7.2995 20.1269 7.78172L19.0473 12.1H14.9027L15.8731 8.21828ZM17.5473 18.1L18.5973 13.9H14.4527L13.4027 18.1H17.5473Z" fill="#333333"/>
</g>
</svg>
