<svg width="32" height="32" viewBox="0 0 32 32" fill="none" xmlns="http://www.w3.org/2000/svg">
<g id="Channel: Galleries">
<path id="Items" fill-rule="evenodd" clip-rule="evenodd" d="M16 7.8H9C8.33726 7.8 7.8 8.33726 7.8 9V16C7.8 16.6627 8.33726 17.2 9 17.2H11.1123C11.654 14.0997 14.0997 11.654 17.2 11.1123V9C17.2 8.33726 16.6627 7.8 16 7.8ZM19 11.0164V9C19 7.34315 17.6569 6 16 6H9C7.34315 6 6 7.34315 6 9V16C6 17.6569 7.34315 19 9 19H11.0164C11.2737 22.909 14.5259 26 18.5 26C22.6421 26 26 22.6421 26 18.5C26 14.5259 22.909 11.2737 19 11.0164ZM24.2 18.5C24.2 21.648 21.648 24.2 18.5 24.2C15.352 24.2 12.8 21.648 12.8 18.5C12.8 15.352 15.352 12.8 18.5 12.8C21.648 12.8 24.2 15.352 24.2 18.5Z" fill="#333333"/>
</g>
</svg>
