<svg width="32" height="32" viewBox="0 0 32 32" fill="none" xmlns="http://www.w3.org/2000/svg">
<g id="Channel: Talk">
<path id="Bubble" d="M16.9363 22.9622L16.8633 22.0652C16.722 22.0767 16.5854 22.1214 16.4647 22.1958L16.9363 22.9622ZM12.9758 22.5847L13.8412 22.8319C13.9775 22.3547 13.7019 21.8572 13.225 21.7198L12.9758 22.5847ZM12 26L11.1346 25.7528C11.0326 26.1098 11.1604 26.4928 11.4562 26.7172C11.7521 26.9415 12.1554 26.9611 12.4717 26.7665L12 26ZM24.1 15C24.1 18.9772 21.0392 21.7254 16.8633 22.0652L17.0093 23.8593C21.8946 23.4617 25.9 20.1247 25.9 15H24.1ZM16 7.9C20.6109 7.9 24.1 10.7641 24.1 15H25.9C25.9 9.51573 21.3302 6.1 16 6.1V7.9ZM7.9 15C7.9 10.7641 11.3891 7.9 16 7.9V6.1C10.6698 6.1 6.1 9.51573 6.1 15H7.9ZM13.225 21.7198C10.0668 20.81 7.9 18.3618 7.9 15H6.1C6.1 19.2836 8.91897 22.3525 12.7267 23.4495L13.225 21.7198ZM12.8654 26.2472L13.8412 22.8319L12.1104 22.3374L11.1346 25.7528L12.8654 26.2472ZM16.4647 22.1958L11.5283 25.2335L12.4717 26.7665L17.408 23.7287L16.4647 22.1958Z" fill="#333333"/>
</g>
</svg>
