<svg width="32" height="32" viewBox="0 0 32 32" fill="none" xmlns="http://www.w3.org/2000/svg">
<g id="Gift">
<path id="Union" fill-rule="evenodd" clip-rule="evenodd" d="M11 6.1C8.29378 6.1 6.09998 8.29381 6.09998 11V16V21C6.09998 23.7062 8.29378 25.9 11 25.9H16H21C23.7062 25.9 25.9 23.7062 25.9 21V16V11C25.9 8.29381 23.7062 6.1 21 6.1H16H11ZM7.89998 11C7.89998 9.28792 9.28789 7.9 11 7.9H15.1V12.611L14.2267 11.0828C13.2523 9.3775 10.7706 9.44638 9.89222 11.2031C9.28486 12.4178 9.77722 13.8949 10.9919 14.5022L12.1875 15.1H7.89998V11ZM13.8272 16.9H7.89998V21C7.89998 22.7121 9.28789 24.1 11 24.1H15.1V18.1728L11.6364 21.6364C11.2849 21.9879 10.7151 21.9879 10.3636 21.6364C10.0121 21.2849 10.0121 20.7151 10.3636 20.3636L13.8272 16.9ZM16.9 18.1728V24.1H21C22.7121 24.1 24.1 22.7121 24.1 21V16.9H18.1728L21.6364 20.3636C21.9878 20.7151 21.9878 21.2849 21.6364 21.6364C21.2849 21.9879 20.7151 21.9879 20.3636 21.6364L16.9 18.1728ZM19.8124 15.1H24.1V11C24.1 9.28792 22.7121 7.9 21 7.9H16.9V12.611L17.7733 11.0828C18.7477 9.3775 21.2294 9.44638 22.1077 11.2031C22.7151 12.4178 22.2227 13.8949 21.008 14.5022L19.8124 15.1ZM20.203 12.8922L18.2562 13.8657L19.3361 11.9758C19.5972 11.5188 20.2624 11.5372 20.4978 12.008C20.6605 12.3336 20.5286 12.7295 20.203 12.8922ZM11.7969 12.8922L13.7438 13.8657L12.6639 11.9758C12.4027 11.5188 11.7376 11.5372 11.5022 12.008C11.3394 12.3336 11.4714 12.7295 11.7969 12.8922Z" fill="#333333"/>
</g>
</svg>
