<svg width="32" height="32" viewBox="0 0 32 32" fill="none" xmlns="http://www.w3.org/2000/svg">
<g id="Home">
<path id="House" d="M7 14.8981C7 14.3269 7.2443 13.7828 7.67127 13.4033L14.6713 7.18109C15.429 6.50752 16.571 6.50752 17.3287 7.18109L24.3287 13.4033C24.7557 13.7828 25 14.3269 25 14.8981V24.2C25 25.1941 24.1941 26 23.2 26H19C18.4477 26 18 25.5523 18 25V22C18 20.8954 17.1046 20 16 20V20C14.8954 20 14 20.8954 14 22V25C14 25.5523 13.5523 26 13 26H8.8C7.80589 26 7 25.1941 7 24.2V14.8981Z" stroke="#333333" stroke-width="1.8"/>
</g>
</svg>
