<svg width="32" height="32" viewBox="0 0 32 32" fill="none" xmlns="http://www.w3.org/2000/svg">
<g id="Profile">
<path id="Sigil" fill-rule="evenodd" clip-rule="evenodd" d="M9 6C7.34315 6 6 7.34315 6 9V23C6 24.6569 7.34315 26 9 26H23C24.6569 26 26 24.6569 26 23V9C26 7.34315 24.6569 6 23 6H9ZM11.25 11.25C11.25 13.7353 13.2647 15.75 15.75 15.75V11.25H11.25ZM18.5 15.75H16.25V11.25H18.5C19.7426 11.25 20.75 12.2574 20.75 13.5C20.75 14.7426 19.7426 15.75 18.5 15.75ZM11.25 20.75C11.25 18.2647 13.2647 16.25 15.75 16.25V20.75H11.25ZM18.5 20.75C19.7426 20.75 20.75 19.7426 20.75 18.5C20.75 17.2574 19.7426 16.25 18.5 16.25C17.2574 16.25 16.25 17.2574 16.25 18.5C16.25 19.7426 17.2574 20.75 18.5 20.75Z" fill="#333333"/>
</g>
</svg>
