<svg width="32" height="32" viewBox="0 0 32 32" fill="none" xmlns="http://www.w3.org/2000/svg">
<g id="Search">
<path id="Magnifying Glass" fill-rule="evenodd" clip-rule="evenodd" d="M23.2 14.5C23.2 17.648 20.648 20.2 17.5 20.2C14.352 20.2 11.8 17.648 11.8 14.5C11.8 11.352 14.352 8.8 17.5 8.8C20.648 8.8 23.2 11.352 23.2 14.5ZM25 14.5C25 18.6421 21.6421 22 17.5 22C15.7314 22 14.1058 21.3878 12.8235 20.3638C12.7798 20.4627 12.7174 20.5554 12.6364 20.6364L8.6364 24.6364C8.28493 24.9879 7.71508 24.9879 7.36361 24.6364C7.01214 24.2849 7.01214 23.7151 7.36361 23.3636L11.3636 19.3636C11.4446 19.2826 11.5373 19.2202 11.6362 19.1765C10.6122 17.8942 10 16.2686 10 14.5C10 10.3579 13.3579 7 17.5 7C21.6421 7 25 10.3579 25 14.5Z" fill="#333333"/>
</g>
</svg>
