<svg width="32" height="32" viewBox="0 0 32 32" fill="none" xmlns="http://www.w3.org/2000/svg">
<g id="Send">
<path id="Paper Airplane" fill-rule="evenodd" clip-rule="evenodd" d="M23.6924 6.55989C23.8217 5.41349 22.5868 4.6115 21.5921 5.19589L4.93769 14.9806C3.57446 15.7815 3.72881 17.7999 5.19794 18.3843L12.6068 21.3311L18.3123 26.9009C19.4437 28.0053 21.3504 27.3253 21.5276 25.7542L23.6924 6.55989ZM5.84949 16.5326L21.8141 7.15311L19.7389 25.5525C19.7355 25.5827 19.7266 25.5964 19.7199 25.6044C19.7108 25.6154 19.6952 25.6276 19.6731 25.6355C19.6511 25.6434 19.6312 25.6438 19.6173 25.641C19.607 25.639 19.5915 25.6341 19.5697 25.6128L14.0887 20.2624L16.392 15.5138C16.5204 15.2491 16.1655 15.0186 15.9759 15.2436L12.5102 19.3556L5.86319 16.7117C5.83491 16.7005 5.82412 16.6883 5.81812 16.6797C5.80993 16.6681 5.80223 16.6498 5.80044 16.6264C5.79865 16.6031 5.80349 16.5838 5.80981 16.5711C5.81444 16.5617 5.82325 16.548 5.84949 16.5326Z" fill="#333333"/>
</g>
</svg>
