<svg width="478" height="478" viewBox="0 0 478 478" fill="none" xmlns="http://www.w3.org/2000/svg">
<style>
  @media (prefers-color-scheme: dark) {
    path {
      fill: white;
    }
  }
</style>
<path d="M324.95 191.25H406.125C419.311 191.25 430 201.939 430 215.125V410.9C430 421.449 421.449 430 410.9 430H67.1C56.5514 430 48 421.449 48 410.9V215.125C48 201.939 58.6892 191.25 71.875 191.25H153.05C160.961 191.25 167.375 197.664 167.375 205.575V250.938C167.375 257.53 172.72 262.875 179.312 262.875C185.905 262.875 191.25 257.53 191.25 250.938V191.25C191.25 178.064 180.561 167.375 167.375 167.375H71.875C58.6892 167.375 48 156.686 48 143.5V67.1C48 56.5514 56.5514 48 67.1 48H410.9C421.449 48 430 56.5514 430 67.1V143.5C430 156.686 419.311 167.375 406.125 167.375H310.625C297.439 167.375 286.75 178.064 286.75 191.25V250.938C286.75 257.53 292.095 262.875 298.688 262.875C305.28 262.875 310.625 257.53 310.625 250.938V205.575C310.625 197.664 317.039 191.25 324.95 191.25Z" fill="black"/>
</svg>
