<svg xmlns="http://www.w3.org/2000/svg" xml:space="preserve" viewBox="0 0 911.531 754.599"><g fill-rule="evenodd" clip-rule="evenodd"><path d="m607.234 314.155 6.127-.27-5.631-8.058c7.881 1.528 20.031 22.258 21.805 30.914 3.016 14.723 1.861 28.828-5.752 41.999-6.371 11.022-14.938 20.011-26.742 25.136-7.498 3.256-15.248 6.652-24.938 4.855-1.932 21.663-4.018 44.111-5.779 66.585-.154 1.966 1.838 4.101 2.832 6.156 1.85-1.044 4.615-1.637 5.389-3.21 3.336-6.785 6.033-13.882 9.076-20.814 2.027-4.613 1.201-9.398 1.246-14.157.063-6.492 3.613-11.548 9.803-13.38 8.461-2.505 17.033-4.633 26.652-7.217-1.066 2.452-1.568 3.604-2.07 4.756.35.149.697.3 1.047.449l2.211-5.723 6.785-.794c.123.644.246 1.287.371 1.931l-8.016 3.015c4.266.383 7.191.646 10.117.907l-.127-.088c-10.232 2.954-20.477 5.87-30.693 8.875-7.443 2.189-8.244 3.232-9.004 10.994-.113 1.157-.16 2.322-.223 3.484-1.271 24.295-13.164 41.495-35.018 51.786-24.436 11.505-54.801 3.342-68.332-19.368-2.123-3.564-4.723-6.844-7.002-10.32-2.756-4.198-6.475-5.29-11.24-4.085-19.899 5.03-39.826 9.948-59.729 14.961-9.227 2.323-9.112 2.353-6.73 11.473 8.625 33.031 16.459 66.261 24.937 99.329a2237.969 2237.969 0 0 1 5.308 21.188c3.271 13.307 6.583 26.604 9.748 39.936 6.284 26.478 12.475 52.978 18.717 79.465.797 3.382.902 7.276 2.746 9.957 1.623 2.36 5.234 3.353 6.711 4.215 1.168-1.372 1.926-3.025 3.178-3.599 5.299-2.424 11.127-3.282 16.693-4.88 14.164-4.065 28.625-7.082 42.893-10.809 18.396-4.806 36.721-9.894 55.076-14.859 3.359-.909 6.723-1.803 10.078-2.726 3.365-.927 6.709-1.937 10.088-2.808 3.303-.852 6.654-1.512 9.955-2.369 3.336-.867 6.607-2.477 9.959-2.628 2.668-.12 4.68-1.239 7.016-1.914 15.404-4.452 30.891-8.631 46.414-12.647 1.232-.319 2.955 1.257 4.451 1.953-.141.535-.279 1.07-.42 1.606-3.836 4.426-9.346 5.635-14.545 7.085-19.688 5.491-39.461 10.68-59.193 16.005-24.887 6.715-49.721 13.635-74.67 20.105-12.301 3.189-24.887 5.275-37.203 8.405-10.41 2.646-20.613 6.098-30.92 9.151-6.377 1.89-12.417-1.873-13.927-8.447a30140.943 30140.943 0 0 0-17.061-73.728c-.246-1.06-.809-2.046-2.07-3.015-1.3 9.536-2.714 19.058-3.871 28.61-1.318 10.886-2.104 21.844-3.702 32.686-1.08 7.328-4.887 9.844-12.242 9.189-11.396-1.013-22.788-2.076-34.158-3.33-1.87-.206-3.621-1.499-5.157-2.171-1.316.385-2.734 1.251-4.053 1.118-19.501-1.957-38.988-4.052-58.48-6.103-29.224-3.075-58.448-6.143-87.673-9.21-14.305-1.502-28.608-3.015-42.916-4.486-5.883-.605-11.798-.948-17.659-1.707-10.1-1.309-14.224-5.926-13.291-16.024 1.722-18.64 3.828-37.247 6.072-55.833.93-7.702-1.033-11.996-9.075-14.145-41.599-11.112-58.593-74.809-21.892-107.972 9.069-8.195 19.717-13.139 32.102-14.218 3.496-.305 6.893-1.76 10.875-2.832 1.027-8.678 2.109-17.814 3.306-27.908-12.834 0-24.886.01-36.938-.002-34.04-.034-68.081-.057-102.121-.131-8.191-.018-16.381-.178-24.57-.347-7.789-.16-11.972-4.83-11.667-12.727.409-10.584 1.015-21.171 1.009-31.757-.009-13.109-.561-26.218-.865-39.327-.02-.825.068-1.652.113-2.626l4.266-1.029.078-.622-5.115-.734 5.16-1.636.047-.736c-1.418-.111-2.837-.224-3.563-.28 0-18.485.011-36.9-.005-55.315-.009-11.859-.066-23.719-.086-35.578-.033-20.922-.158-41.845.018-62.766.031-3.72 1.33-7.429 2.095-11.412l-2.548.22c.511-2.182 1.012-4.151 1.412-6.141a3.306 3.306 0 0 0-.147-1.711c-2.19-5.905-1.373-11.78.849-17.344.872-2.184 1.731-6.213 6.057-4.12 10.276-6.425 21.27-1.192 31.898-1.91 4.594-.311 9.234-.223 13.838.017 2.539.132 5.043.949 7.926 1.53 1.391-.298 3.449-1.124 5.508-1.121 23.654.023 47.309.141 70.961.342 2.192.019 4.385 1.146 6.564 1.104 3.248-.062 6.482-.731 9.729-1.085.985-.108 1.991-.026 2.987-.034 6.308-.048 12.628-.333 18.919-.033 2.62.125 5.155 1.593 7.778 2.256 1.262.318 3.453.732 3.83.169 2.525-3.769 6.295-2.574 9.611-2.651 7.933-.186 15.872-.117 23.808-.024 1.135.014 2.262.732 3.978 1.327l21.658-2.482c-.438-.981-.728-2.238-1.45-3.156-10.046-12.767-14.158-27.571-13.063-43.405 1.712-24.726 13.323-43.271 36.863-53.047 4.972-2.065 10.383-3.054 15.523-4.745 2.504-.824 4.967-1.889 4.505-5.482-.294-2.287-.233-4.664.013-6.964.184-1.711.92-3.363 1.666-5.924-3.004-4.953-2.619-11.188-.644-17.615.261-.847-.939-2.045-.968-3.094-.234-8.441-.781-16.906-.388-25.324.458-9.804 4.892-13.401 15.949-13.694 9.965-.263 19.943-.392 29.907-.188 12.281.252 24.503-1.138 36.791-.92 13.589.241 27.188-.072 40.781-.155 1.317-.008 2.648.009 3.949-.168 2.197-.298 4.592-1.872 5.611 1.962.18.675 3.109.617 4.877.916l.195 4.237 3.977-4.502-7.637-2.264.096-.938c10.602 0 21.205.12 31.805-.034C467.2 1.209 477.753.8 488.308.466c26.311-.836 28.891-.649 30.23 1.81 1.23-.675 2.494-1.991 3.65-1.903 10.297.784 20.576-.166 30.846-.367 10.686-.211 15.924 7.153 15.664 15.724-.371 12.298.033 24.618-.332 36.916-.178 5.964.607 11.898.111 17.838-.359 4.298 1.539 6.244 5.752 7.081 14.256 2.835 26.814 9.221 36.332 20.281 3.951 4.59 5.785 10.941 9.396 15.896 6.273 8.603 7.457 18.445 6.807 28.287-1.596 24.239-9.691 45.257-32.842 57.202-3.676 1.897-8.107 2.535-12.277 3.22-4.395.723-9.744 5.264-10.031 9.96-.654 10.775-1.047 21.571-1.348 32.364-.318 11.431-.287 22.871-.645 34.301-.182 5.87-4.305 9.809-10.393 9.893-15.08.207-30.162.188-45.242.229-9.998.027-19.996.005-30.393 1.031 6.037 4.828 12.057 9.676 18.115 14.478 7.225 5.727 14.91 10.969 21.518 17.334 2.693 2.595 6.031 3.823 8.619 6.372 3.063 3.017 6.592 5.604 10.135 8.069 2.479 1.725 2.682 3.689 1.365 5.953-1.818 3.131-3.877.887-5.32-.302-8.098-6.672-15.922-13.681-24.098-20.253-6.213-4.994-12.875-9.426-19.223-14.258-7.01-5.336-13.803-10.957-20.883-16.193-1.711-1.266-4.166-2.071-6.301-2.123-9.977-.239-19.961-.115-29.943-.174-4.244-.025-8.536.154-12.703-.461-1.433-.212-2.549-2.56-4.478-4.658l.683 5.665H306.428c7.097 5.65 8.885 13.315 11.085 20.553 2.96 9.735 3.26 19.574 2.616 29.909-1.001 16.07-4.779 30.456-15.896 42.312-7.771 8.287-17.74 12.68-28.792 14.716-4.43.816-8.121 2.339-8.146 7.686-.046 9.896-.013 19.795-.013 30.152 8.322.747 16.047 1.414 23.767 2.14 25.521 2.396 51.043 4.795 76.561 7.23 23.61 2.254 47.22 4.513 70.819 6.883 3.767.378 8.017.449 11.061 2.288 3.261 1.969 5.358 5.86 8.712 9.788 2.608-.595 6.6-1.524 10.6-2.412 7.422-1.646 13.309-.491 17.934 6.721 4.684 7.305 10.438 14.02 16.35 20.412 6.408 6.928 14.924 10.116 24.244 11.251 1.891.23 3.715 1.01 6.186 1.71 1.32-.387 3.74-1.399 6.256-1.778 9.064-1.365 17.271-4.591 24.84-10.658-6.057-4.362-6.471-10.558-5.871-17.037 1.746-18.844 3.391-37.697 5.35-56.52.846-8.142 3.824-11.09 12.65-12.877 13.232-2.679 25.451-7.412 33.836-18.439 4.445-5.847 8.244-12.496 10.869-19.346 4.182-10.917 2.328-23.977-2.551-35.018-2.71-6.138-6.985-10.735-11.661-15.189zM252.823 180.953c.919.394 2.091.575 2.789 1.248 3.023 2.914 5.405 6.959 8.951 8.765 6.898 3.513 14.222 6.797 21.743 8.311 7.53 1.515 13.298 8.107 13.294 16.843-.008 18.279-.056 36.559.021 54.838.045 10.558 1.061 11.438 11.425 11.262 4.825-.083 9.664-.253 14.475.02 1.958.11 3.856 1.292 4.384 1.481 1.826-.733 2.914-1.534 4.016-1.555 9.476-.173 18.955-.329 28.431-.237 6.396.062 12.788.78 19.181.743 5.507-.031 11.011-.715 16.608-1.116l-.208 3.027c1.961-1.034 3.872-2.893 5.82-2.933 12.853-.262 25.712-.131 38.569-.129h17.489c-4.998-5.39-10.127-9.579-15.347-13.653-2.225-1.735-3.823-3.944-1.536-6.096.92-.865 4.326-.268 5.761.797 7.204 5.344 14.079 11.128 21.194 16.595 1.434 1.102 3.406 2.124 5.135 2.131 27.068.111 54.139-.048 81.207.113 4.998.029 6.365-2.118 6.338-6.586-.07-11.146-.146-22.302.186-33.441.32-10.756.764-21.539 1.902-32.23.65-6.115 4.029-10.183 11.014-11.627 17.535-3.626 30.324-13.726 37.768-30.277 6.545-14.554 8.375-29.613 3.027-44.714-7.223-20.393-22.188-32.477-43.174-37.296-9.809-2.253-12.625-5.958-12.533-15.972.162-17.933.277-35.864.408-53.797.045-6.186-1.797-7.998-8.006-7.94-15.092.14-30.184.213-45.273.41-36.273.474-72.545 1.02-108.819 1.485-3.741.048-7.541-.129-9.104-4.069-.812 1.468-1.687 4.113-2.341 4.061-3.813-.311-8.563 2.937-10.7-1.331-3.673.732-6.991 1.9-10.335 1.979-20.844.492-41.692.822-62.542.998-3.927.033-6.101 1.415-6.211 5.295-.191 6.747-.23 13.501-.228 20.252.005 15.643.156 31.285-.037 46.925-.017 1.327-1.934 3.349-3.368 3.815-6.441 2.098-13.242 3.203-19.523 5.664-18.952 7.426-29.808 21.747-32.974 41.639-2.215 13.92 1.022 26.975 8.172 39.115 1.318 2.238 2.01 4.848 2.951 7.187zM448.634 466c.254-4.944-2.329-6.322-5.823-6.675-16.837-1.701-33.675-3.397-50.52-5.031-16.325-1.583-32.659-3.079-48.988-4.63-16.033-1.523-32.058-3.141-48.097-4.586-24.387-2.196-48.784-4.271-73.175-6.417-9.504-.837-19.003-1.741-28.506-2.593-4.134-.37-6.592 1.127-7.058 5.653-1.184 11.52-2.665 23.009-3.903 34.524-1.117 10.383-1.924 20.803-3.264 31.154-.182 1.405-2.507 3.285-4.115 3.62-6.122 1.272-12.479 1.515-18.525 3.027-17.581 4.398-29.562 15.315-36.27 32.188-11.277 28.361 5.936 68.139 34.688 74.318 9.719 2.089 13.571 9.212 13.05 19.128-.165 3.135-.698 6.25-1.045 9.376-1.811 16.362-3.752 32.713-5.257 49.104-.198 2.152 1.34 5.932 2.957 6.518 5.614 2.033 12.032 4.938 17.358 3.808 5.271-1.12 9.724.641 14.45.709 12.018.174 24.012 2.027 36.015 3.217 9.923.982 19.856 1.878 29.757 3.05 1.886.224 3.64 1.561 5.108 2.227 2.121-.351 4.336-1.21 6.438-.99 23.783 2.484 47.546 5.177 71.322 7.724 14.186 1.521 28.394 2.828 42.58 4.337 9.694 1.03 19.369 2.247 29.054 3.375 3.778.439 5.697-.712 6.104-5.038 1.355-14.394 2.895-28.783 4.903-43.099 1.234-8.792 3.528-17.433 5.192-26.171.59-3.097 1.457-6.411.924-9.399-1.424-7.977-3.619-15.813-5.301-23.75-.289-1.361.442-2.938.753-4.697-.897-1.112-2.993-2.588-3.469-4.474-5.94-23.535-11.594-47.144-17.433-70.706-2.979-12.023-6.237-23.978-9.252-35.992-.94-3.749-1.495-7.595-2.479-12.707-2.009-1.38-3.493-9.138-1.247-13.54 2.26-4.431 7.443-6.135 11.264-4.668 2.089-1.22 3.093-2.136 4.256-2.434 12.452-3.197 24.926-6.294 37.554-9.46zM62.063 191.542c-1.507 4.119-6.126 2.793-10.334 2.674-11.897-.335-23.804-.487-35.687-1.099-4.511-.232-6.08 1.932-7.196 5.675-.53 1.779-2.029 3.269-3.604 5.677-.22-.414-.028.598.552.925 2.654 1.499 5.472 2.734.799 5.383-.399.226-.131 2.045.178 3.013.522 1.644 1.904 3.192 1.92 4.79.182 19.467.244 38.935.139 58.402-.012 2.236-1.222 4.467-1.889 6.739 3.771-.169 1.737 3.657 1.732 5.602-.041 16.642-.541 33.282-.646 49.924-.178 28.054-.159 56.108-.244 84.163-.012 3.787-.216 7.574-.209 11.362.014 8.287.303 16.579.09 24.86-.13 5.06 1.884 7.935 6.669 7.854 8.626-.145 17.249-.537 25.875-.604 21.843-.17 43.688-.326 65.53-.285 22.223.042 44.445.255 66.665.583 3.402.05 4.2-1.197 4.393-4.282.436-6.964 1.218-13.908 1.915-20.855 1.011-10.064 5.6-14.123 15.729-13.65 4.769.223 9.504.919 14.283 1.221 14.023.888 27.964 3.03 41.953 4.535 3.044.328 6.152.048 9.073.048 0-9.442-.063-18.088.015-26.733.112-12.343 3.17-15.968 15.257-18.055 11.557-1.996 20.459-8.021 27.542-17.247 6.92-9.013 10.121-19.681 11.29-30.396.844-7.729.338-16.034-1.872-23.998-4.286-15.454-11.183-28.755-26.477-35.967-4.66-2.198-9.483-4.055-14.113-6.313-5.847-2.853-9.451-7.881-9.605-14.165-.378-15.413-.022-30.844.021-46.268.021-7.48.003-14.962.003-23.087-5.606 3.726-38.402 2.816-42.545-.507-.418.944-1.003 2.739-1.224 2.695-6.459-1.277-13.585 3.009-19.587-2.297-.604-.533-1.836-.354-2.776-.507l-.257.95 2.412 1.413-.287 1.269c-11.51 0-23.02.042-34.529-.047-1.672-.013-4.209-.092-4.85-1.095-2.196-3.44-4.292-.899-6.385-.386-1.359.334-2.635 1.442-3.952 1.449-20.618.111-41.237.174-61.854.007-2.209-.019-4.406-1.542-5.914-2.107-3.808 4.308-8.979.688-13.149 1.753-1.108.279-2.78-1.664-4.85-3.016zm230.476 84.199c0-20.82.114-40.759-.163-60.692-.03-2.188-1.798-5.486-3.638-6.31-5.926-2.649-12.263-4.383-19.128-6.701 0 5.31.086 9.607-.016 13.901-.313 13.232-.771 26.462-1.024 39.696-.148 7.778 3.938 12.809 10.992 15.545 3.852 1.494 7.796 2.75 12.977 4.561z"/><path d="M687.216 693.359c.141-.536.279-1.071.42-1.606.613.09 1.264.083 1.836.291 1.031.374 2.018.877 3.023 1.327.174-1.214.441-2.424.486-3.643.029-.743-.283-1.5-.504-2.541 8.879-2.389 17.508-4.646 26.098-7.042 5.604-1.564 6.146-2.758 4.607-8.571-4.785-18.08-9.498-36.18-14.34-54.245-4.377-16.333-9.275-32.536-13.248-48.966-7.172-29.663-13.85-59.446-20.6-89.21-.303-1.332.73-2.968.898-3.574-1.188-2.294-2.527-4.017-3.008-5.953-3.547-14.305-6.846-28.672-10.393-42.978-1.359-5.481-3.225-6.185-8.727-4.759-7.336 1.902-14.748 3.52-22.127 5.259l.127.088c-2.289-5.106-1.512-6.986 3.457-8.387 5.268-1.484 10.566-2.867 15.789-4.49 9.633-2.992 16.139.155 18.691 9.726 2.816 10.559 5.381 21.188 7.867 31.829 2.453 10.495 4.588 21.065 7.107 31.544.27 1.114 2.104 2.507 3.328 2.634 9.033.937 18.102 1.515 27.145 2.351 5.387.498 10.744 1.316 16.125 1.892 14.904 1.593 29.9 2.586 44.688 4.918 7.742 1.221 15.488.616 23.18 1.883 8.166 1.345 16.459 1.943 24.707 2.751 7.018.688 9.033-1.125 9.408-7.992.859-15.807 1.766-31.611 2.625-47.418.594-10.929 5.043-16.36 15.961-18.353 10.748-1.962 20.875-5.033 29.74-11.811 12.719-9.722 19.799-22.609 21.875-38.227 1.281-9.643.822-19.284-2.527-28.626-7.484-20.873-22.406-32.614-40.396-36.253-7.119-1.44-10.748-4.426-11.197-10.779-.379-5.353.549-10.798 1.977-16.272l1.334 3.773c.391.053.783.104 1.174.156.406-1.951.811-3.902 1.215-5.854l-4.279-.842c.271-3.184.205-7.004 1.064-10.604.441-1.849 3.393-3.184 3.641-4.969.248-1.795-2.217-3.883-2.158-5.803.221-7.434.885-14.861 1.629-22.266.109-1.075 1.555-2.016 2.469-3.124-5.961-6.95-14.701-4.023-22.373-5.378-2.797-.495-5.543-1.287-8.311-1.944-.383-.853-.766-1.706-1.146-2.559l2.369-3.519 11.107 1.184c-.055 1.05-.115 2.226-.186 3.566 4.539-6.866 10.42-2.15 15.996-2.672l-.959 4.986c3.051-4.675 5.266-3.408 6.334-.53 1.166 3.139 1.998 6.609 1.979 9.93-.027 4.36-1.029 8.715-1.678 13.563-.98-.87-1.754-1.555-2.709-2.4l-.92 2.503c.293.257.523.613.693.586 3.131-.496 3.301 1.587 2.953 3.665-.51 3.05-1.574 6.018-1.953 9.076-.27 2.183.467 4.479.285 6.686-.652 7.96-1.354 15.923-2.33 23.849-.674 5.468 2.07 7.47 6.818 9.133 7.596 2.66 15.613 5.142 22.131 9.622 11.957 8.219 19.279 19.834 23.158 34.321 3.533 13.198 4.031 25.896.195 38.696-7.938 26.495-26.107 41.557-53.184 46.176-10.09 1.722-11.473 3.635-12.074 13.603a1724.21 1724.21 0 0 1-3.816 50.424c-.547 6.067-4.859 10.013-11.047 10.086-6.613.078-13.254-.613-19.855-1.252-26.572-2.57-53.133-5.241-79.697-7.892-12.828-1.28-25.65-2.604-38.479-3.887-.953-.096-1.922-.013-3.553-.013 1.959 8.695 3.615 16.947 5.688 25.094 8.174 32.122 16.469 64.213 24.736 96.312 4.328 16.803 8.74 33.584 12.988 50.407.641 2.539.906 5.27.779 7.884-.221 4.477-1.955 7.511-7.098 8.668-11.098 2.496-22.01 5.798-33.059 8.524-1.107.274-2.635-1.134-3.969-1.762z"/><path d="m825.574 228.742 1.146 2.559c-.469.432-1.092 1.325-1.381 1.228-7.166-2.4-14.566-.256-21.83-1.214-7.883-1.039-15.889-1.13-23.787-2.082-5.381-.648-11.027.576-16.113-3.277-1.611-1.221-5.668 1.277-8.576 1.18-7.729-.261-15.439-1.007-23.156-1.561l-.572-1.367 3.199-1.039c-.262-.519-.525-1.037-.789-1.556l-5.379.41c.16.858.32 1.717.625 3.341-7.244-.729-14.449-1.52-21.668-2.158-4.586-.405-9.199-.509-13.783-.92-1.035-.093-1.986-1.245-3.01-1.302-1.359-.076-2.771.743-4.129.657-6.555-.418-13.125-.819-19.641-1.62-3.354-.412-7.016-3.055-9.824-2.238-7.512 2.185-14.561-.33-21.777-.692-5.246-.264-10.469-.608-15.568-3.034-2.645-1.258-6.646.338-10.035.633-.154.014-.318-.084-.053-.008l-2.871-6.45c1.85-.302 3.75-1.033 5.541-.822 4.672.552 9.639.741 13.814 2.592 2.689 1.19 3.27-1.377 5.229-.985 3.764.752 7.654.878 11.492 1.249 7.4.717 14.803 1.425 22.205 2.134 2.943.281 5.891.556 10.086.95l-4.607 1.839c1.555 1.128 2.828 2.051 4.305 3.119.668-1.268 1.568-2.972 2.432-4.607 8.002.54 16.502-.272 24.053 2.027 6.98 2.127 14.998-2.045 21.389 4.029l.83-2.202 12.408 1.299-1.588 3.63c3.725.089 6.715 3.559 10.164.711.643-.529.203-2.369.273-3.829 10.658.638 21.758 1.105 32.82 2.021 10.006.829 19.973 2.147 29.715 3.726 2.998-.238 5.994-.653 8.994-.66 2.6-.006 5.271.185 7.76.856.801.215 1.118 2.236 1.657 3.433z"/><path d="m606.722 208.145-1.992 5.919c-3.594-.292-8.027-.557-12.439-1.038-4.049-.442-5.809.54-6.043 5.271-.547 11.063-2.053 22.074-3 33.122-.969 11.32-2.086 22.651-2.322 33.995-.055 2.646 2.652 6.093 5.051 7.874 3.67 2.724 8.041 4.688 12.365 6.3 4.938 1.843 6.824 5.65 8.049 9.067l-2.684 2.719c-4.844-2.472-9.563-5.235-14.555-7.357-12.701-5.401-16.027-10.52-15.211-25.885.289-5.457.813-10.911 1.461-16.339 1.83-15.302 2.264-30.7 3.398-46.049.154-2.081.895-4.214 1.803-6.111.607-1.265 1.947-3.008 3.041-3.07 6.234-.351 12.496-.38 18.74-.231 1.459.034 2.893 1.178 4.338 1.813zM389.734 335.07l2.153-3.174-1.086-.75c-.617.779-1.087 1.83-1.89 2.268-.991.541-2.313.881-3.389.7-.57-.097-1.492-1.922-1.273-2.201.793-1.018 2.062-2.481 3.042-2.403 6.709.535 13.402 1.331 20.078 2.219 5.082.675 10.34.984 15.135 2.601 5.061 1.705 10.211.663 15.236 1.891 5.792 1.414 11.759 2.115 17.652 3.112 5.864.991 11.733 1.96 17.598 2.95 5.895.995 11.793 1.963 17.678 3.02 5.883 1.057 11.748 2.208 17.621 3.316 5.875 1.107 11.752 2.202 17.623 3.329 1.133.218 2.496.257 3.295.927.949.795 2.164 2.456 1.879 3.242-.354.977-2.188 2.114-3.268 2.01-4.607-.449-9.18-1.288-13.752-2.063-22.57-3.826-45.133-7.698-67.705-11.514-18.705-3.163-37.422-6.268-56.627-9.48zM417.691 413.394c1.143-.742 2.721-2.224 4.59-2.905 14.016-5.114 28.085-10.082 42.146-15.074 22.65-8.042 45.301-16.086 67.973-24.07 2.158-.761 4.854-2.662 6.1 1.229 1.063 3.319-1.252 4.329-3.768 5.225-25.324 9.018-50.635 18.076-75.96 27.091-11.824 4.209-23.688 8.306-35.503 12.543-2.881 1.032-5.273 1.658-5.578-4.039z"/><path d="M614.667 272.033c.252 4.644-1.605 8.183-5.826 8.729-3.527.457-7.277-.77-10.904-1.396-.066-.012.18-1.831.295-2.974l-2.373.493c-2.854-6.134 1.723-10.746 8.109-13.987-6.139.34-11.045-1.771-15.277-5.481-3.387-2.97-4.113-7.658-1.648-10.715 2.863-3.551 6.541-3.153 9.859-1.057 7.74 4.89 15.234 10.165 22.934 15.124 3.322 2.142 5.213 4.916 3.49 8.604-1.582 3.391-4.696 4.534-8.659 2.66zM415.659 211.569l.471 4.304c-5.824-.283-11.769-.275-17.604-1.07-1.413-.193-3.541-3.14-3.399-4.636.165-1.748 2.158-4.087 3.896-4.741 2.514-.946 5.507-.708 8.302-.801 13.269-.441 26.537-.92 39.811-1.167 3.841-.071 7.733.365 11.519 1.04 1.112.198 2.678 1.983 2.727 3.099.086 1.956-.242 4.591-1.497 5.775-1.508 1.424-4.152 2.211-6.329 2.263-10.344.243-20.705.377-31.038-.021-2.241-.086-4.389-2.52-6.859-4.045zM480.906 86.892c4.352.387 8.029.443 11.594 1.108 3.416.638 5.609 2.687 5.281 6.649-.305 3.7-2.338 6.178-5.793 6.388-9.227.561-18.48.692-27.727.847-2.469.041-4.972-.296-7.412-.731-3.533-.632-5.16-3.242-4.853-6.492.281-2.965 2.028-5.084 5.524-5.387 8.028-.694 16.038-1.62 23.386-2.382zM405.409 99.941v-6.755l-6.139 8.108c-9.386 0-19.132.093-28.875-.047-3.682-.053-6.586-1.661-6.419-5.926.163-4.176 2.442-5.949 6.793-6.112 10.108-.38 20.191-1.429 30.299-1.809 6.017-.226 8.938 2.493 8.443 7.386-.193 1.915-1.559 3.713-2.391 5.563l-1.711-.408zM472.681 109.085c4.346.152 8.906-.145 10.377 5.488 1.295 4.953-.508 8.281-5.402 9.622-1.436.394-2.943.586-4.43.705-6.775.545-10.816-2.42-10.861-7.897-.051-6.191 2.57-8.202 10.316-7.918zM374.789 113.201l6.098-1.555-.062-.871h-3.072c.353-.462.659-1.13.87-1.102 2.685.367 5.355.829 8.028 1.276 1.125.188 2.324.762 3.356.541 5.773-1.236 5.217 3.355 5.357 6.314.173 3.635-1.81 6.077-6.057 5.963-1.485-.04-2.97.941-4.496 1.145-6.623.882-9.564-2.578-10.022-11.711zM445.752 164.538c-1.84 1.251-3.526 3.077-5.556 3.618-3.083.821-5.214-1.104-5.342-4.218-.142-3.439 2.116-5.289 5.391-4.747 1.915.315 3.622 1.886 5.422 2.892l.085 2.455zM417.125 169.132c-.599-.806-2.617-2.329-2.825-4.069-.326-2.731 1.058-5.573 4.467-5.227 2.103.213 5.376.237 5.003 3.957-.302 3.017-1.256 5.625-6.645 5.339zM215.38 264.865l-3.636 5.341c-3.872.169-4.807-2.815-4.608-5.565.256-3.54.796-7.726 6.059-7.429 10.413.587 20.842 1.069 31.208 2.141 1.698.175 4.154 2.979 4.427 4.838.502 3.427-.107 7.095-.706 10.585-.895 5.222-4.879 6.657-9.474 6.468-4.49-.187-9.171-.395-10.102-6.535-.144-.948-2.012-2.458-2.895-2.338-5.241.712-8.362-1.612-10.273-7.506z"/></g></svg>