<svg width="32" height="32" viewBox="0 0 32 32" fill="none" xmlns="http://www.w3.org/2000/svg">
<path d="M23.2 12H30C31.1046 12 32 12.8954 32 14V30C32 31.1046 31.1046 32 30 32H2C0.895431 32 0 31.1046 0 30V14C0 12.8954 0.89543 12 2 12H8.8C9.46274 12 10 12.5373 10 13.2V17C10 17.5523 10.4477 18 11 18C11.5523 18 12 17.5523 12 17V12C12 10.8954 11.1046 10 10 10H2C0.895431 10 0 9.10457 0 8V2C0 0.895431 0.895431 0 2 0H30C31.1046 0 32 0.89543 32 2V8C32 9.10457 31.1046 10 30 10H22C20.8954 10 20 10.8954 20 12V17C20 17.5523 20.4477 18 21 18C21.5523 18 22 17.5523 22 17V13.2C22 12.5373 22.5373 12 23.2 12Z" fill="#1A1818" style="fill:#1A1818;fill:color(display-p3 0.1020 0.0941 0.0941);fill-opacity:1;"/>
</svg>
