<svg width="16" height="16" viewBox="0 0 16 16" fill="none" xmlns="http://www.w3.org/2000/svg">
<g clip-path="url(#clip0_2_2)">
<path d="M11.48 5.84H15.28C15.6776 5.84 16 6.16235 16 6.56V15.28C16 15.6776 15.6776 16 15.28 16H0.72C0.322355 16 0 15.6776 0 15.28V6.56C0 6.16235 0.322355 5.84 0.72 5.84H4.52C4.7851 5.84 5 6.05491 5 6.32V8.58C5 8.81197 5.18805 9 5.42 9C5.65195 9 5.84 8.81197 5.84 8.58V6C5.84 5.44771 5.39229 5 4.84 5H0.72C0.322355 5 0 4.67764 0 4.28V0.72C0 0.322355 0.322355 0 0.72 0H15.28C15.6776 0 16 0.322355 16 0.72V4.28C16 4.67764 15.6776 5 15.28 5H11.16C10.6077 5 10.16 5.44771 10.16 6V8.58C10.16 8.81197 10.348 9 10.58 9C10.812 9 11 8.81197 11 8.58V6.32C11 6.05491 11.2149 5.84 11.48 5.84Z" fill="black"/>
</g>
<defs>
<clipPath id="clip0_2_2">
<rect width="16" height="16" fill="white"/>
</clipPath>
</defs>
</svg>
