<svg width="824" height="824" viewBox="0 0 824 824" fill="none" xmlns="http://www.w3.org/2000/svg">
<path d="M496.95 364.25H578.125C591.311 364.25 602 374.939 602 388.125V583.9C602 594.449 593.449 603 582.9 603H239.1C228.551 603 220 594.449 220 583.9V388.125C220 374.939 230.689 364.25 243.875 364.25H325.05C332.961 364.25 339.375 370.664 339.375 378.575V423.938C339.375 430.53 344.72 435.875 351.312 435.875C357.905 435.875 363.25 430.53 363.25 423.938V364.25C363.25 351.064 352.561 340.375 339.375 340.375H243.875C230.689 340.375 220 329.686 220 316.5V240.1C220 229.551 228.551 221 239.1 221H582.9C593.449 221 602 229.551 602 240.1V316.5C602 329.686 591.311 340.375 578.125 340.375H482.625C469.439 340.375 458.75 351.064 458.75 364.25V423.938C458.75 430.53 464.095 435.875 470.688 435.875C477.28 435.875 482.625 430.53 482.625 423.938V378.575C482.625 370.664 489.039 364.25 496.95 364.25Z" fill="#000000"/>
</svg>
