<svg width="32" height="32" viewBox="0 0 32 32" fill="none" xmlns="http://www.w3.org/2000/svg">
 <g id="mini-icon-onecolor-blue-atlassian">
  <g id="Group">
   <path id="Vector" d="M10.9015 15.2C10.7924 15.0546 10.5742 14.9818 10.3924 14.9818C10.247 15.0182 10.1015 15.1273 10.0288 15.2727L4.06515 27.2364C3.91969 27.4909 4.02879 27.8182 4.28333 27.9273C4.35606 27.9637 4.42879 28 4.50151 28H12.8288C13.0106 28 13.2288 27.8909 13.3015 27.7091C15.047 24.1091 13.9561 18.4728 10.9015 15.2Z" fill="#0052CC">
   </path>
   <path id="Vector_2" d="M27.9197 27.2364C27.8106 27.0182 16.7197 4.83638 16.4651 4.29093C16.3924 4.14547 16.247 4.03636 16.0651 4H16.0288C15.847 4 15.6651 4.10911 15.556 4.29093C12.5379 9.05456 12.2106 14.8 14.647 19.6727L18.647 27.7091C18.7197 27.8909 18.9015 28 19.1197 28H27.447C27.7379 28 27.956 27.7818 27.956 27.4909C27.9924 27.3818 27.956 27.3091 27.9197 27.2364Z" fill="#0052CC">
   </path>
  </g>
 </g>
</svg>
