<svg width="264" height="264" viewBox="0 0 264 264" fill="none" xmlns="http://www.w3.org/2000/svg">
<path d="M158.86 93.91C158.86 102.977 156.14 110.513 150.7 116.52C145.26 122.527 136.59 126.55 124.69 128.59L162.26 173.81C165.32 177.55 168.663 180.27 172.29 181.97C176.03 183.557 180.45 184.747 185.55 185.54V192H152.74L111.09 138.62C109.617 136.693 108.2 135.163 106.84 134.03C105.593 132.897 104.233 132.047 102.76 131.48C101.4 130.8 99.7567 130.403 97.83 130.29C96.0167 130.063 93.8067 129.95 91.2 129.95V165.31C91.2 169.503 91.4267 172.96 91.88 175.68C92.4467 178.287 93.5233 180.327 95.11 181.8C96.81 183.273 99.19 184.293 102.25 184.86C105.423 185.313 109.56 185.54 114.66 185.54V192H54.65V185.54C58.6167 185.427 61.79 185.087 64.17 184.52C66.6633 183.953 68.59 182.99 69.95 181.63C71.31 180.27 72.2167 178.343 72.67 175.85C73.1233 173.357 73.35 170.127 73.35 166.16V86.94C73.35 82.9733 73.1233 79.8 72.67 77.42C72.33 74.9267 71.5367 73 70.29 71.64C69.1567 70.1667 67.4567 69.2033 65.19 68.75C62.9233 68.1833 59.9767 67.7867 56.35 67.56V61.1H109.73C125.37 61.1 137.44 63.99 145.94 69.77C154.553 75.55 158.86 83.5967 158.86 93.91ZM91.2 121.45H103.27C114.603 121.45 122.99 119.41 128.43 115.33C133.983 111.137 136.76 104.28 136.76 94.76C136.76 85.58 134.55 79.0067 130.13 75.04C125.823 71.0733 119.023 69.09 109.73 69.09H94.09C92.1633 69.09 91.2 70.0533 91.2 71.98V121.45ZM192.365 182.65C192.365 179.477 193.441 176.813 195.595 174.66C197.748 172.507 200.355 171.43 203.415 171.43C206.588 171.43 209.251 172.507 211.405 174.66C213.558 176.813 214.635 179.477 214.635 182.65C214.635 185.71 213.558 188.317 211.405 190.47C209.251 192.623 206.588 193.7 203.415 193.7C200.355 193.7 197.748 192.623 195.595 190.47C193.441 188.317 192.365 185.71 192.365 182.65Z" fill="#1A1A1A"/>
</svg>
