<svg width="24" height="24" viewBox="0 0 24 24" fill="none" xmlns="http://www.w3.org/2000/svg">
<path d="M5.98649 12.8786C8.38436 12.8788 10.3283 14.8225 10.3283 17.2204C10.3282 19.6183 8.38432 21.562 5.98649 21.5622C3.58846 21.5622 1.64378 19.6184 1.64372 17.2204C1.64372 14.8223 3.58843 12.8786 5.98649 12.8786ZM5.98649 14.07C5.62751 14.07 5.3361 14.3614 5.3361 14.7204V16.57H3.48649C3.12751 16.57 2.83611 16.8614 2.8361 17.2204C2.83616 17.5793 3.12754 17.8708 3.48649 17.8708H5.3361V19.7204C5.33618 20.0793 5.62755 20.3708 5.98649 20.3708C6.34523 20.3706 6.63681 20.0792 6.63688 19.7204V17.8708H8.48649C8.84524 17.8706 9.13682 17.5792 9.13688 17.2204C9.13687 16.8616 8.84527 16.5702 8.48649 16.57H6.63688V14.7204C6.63688 14.3616 6.34528 14.0702 5.98649 14.07Z" fill="#1A1818" style="fill:#1A1818;fill:color(display-p3 0.1020 0.0941 0.0941);fill-opacity:1;"/>
<path d="M13.3563 2.43781C18.3265 2.43806 22.3561 6.46759 22.3563 11.4378C22.3562 14.0256 21.2611 16.3566 19.5125 17.9984C19.2729 18.2827 18.9481 18.5463 18.5526 18.7825C17.0844 19.8232 15.2928 20.4377 13.3563 20.4378C12.4058 20.4378 11.4904 20.2886 10.6307 20.015C11.1228 19.1989 11.4061 18.2425 11.4061 17.22C11.406 16.0322 11.0229 14.9344 10.3748 14.0413C11.2713 13.8276 12.284 13.7064 13.3563 13.7064C16.0995 13.7064 18.4541 14.4946 19.4608 15.6185C20.2769 14.4289 20.7566 12.9892 20.7567 11.4378C20.7564 7.35125 17.4428 4.03767 13.3563 4.03741C9.26955 4.03745 5.95612 7.35112 5.95589 11.4378C5.9559 11.5593 5.95985 11.6801 5.96566 11.8001C5.41341 11.8021 4.88034 11.8858 4.37874 12.0413C4.3655 11.8418 4.35629 11.6407 4.35628 11.4378C4.35651 6.46746 8.38589 2.43784 13.3563 2.43781ZM13.3563 6.52179C14.7889 6.52206 15.95 7.74835 15.95 9.26105C15.9498 10.7736 14.7888 12 13.3563 12.0003C11.9236 12.0003 10.7618 10.7737 10.7616 9.26105C10.7616 7.74821 11.9235 6.52183 13.3563 6.52179Z" fill="#1A1818" style="fill:#1A1818;fill:color(display-p3 0.1020 0.0941 0.0941);fill-opacity:1;"/>
</svg>
