<svg
  fill="none"
  xmlns="http://www.w3.org/2000/svg"
  viewBox="0 0 24 24"
>
  <path d="M24 11.5C24 17.2956 19.2813 22 13.4684 22C11.9992 22 10.6 21.6996 9.33018 21.155C10.3241 19.9965 10.9284 18.5006 10.9284 16.8838C10.9284 16.3419 10.8619 15.8143 10.7295 15.3115C11.5538 15.1141 12.4746 15 13.4684 15C16.5694 15 18.9553 16.104 20.0015 17.3328C21.3996 15.7914 22.2446 13.7454 22.2446 11.5C22.2446 6.66177 18.3212 2.75 13.4684 2.75C9.03538 2.75 5.3778 6.01434 4.78837 10.2706C4.61788 10.251 4.44409 10.2441 4.26881 10.2441C3.83533 10.2441 3.41075 10.2865 3 10.3701C3.56364 5.10471 8.03856 1 13.4684 1C19.2813 1 24 5.70442 24 11.5ZM17.0099 9.36914C17.0099 11.5824 15.4611 13.2706 13.4684 13.25C11.486 13.2295 9.93724 11.5824 9.92692 9.36914C9.9166 7.28973 11.486 5.5706 13.4684 5.5706C15.4508 5.5706 17.0099 7.28973 17.0099 9.36914Z" fill="currentColor" />
  <path d="M10 16.9999C10 19.7362 7.7067 22 5 22C2.26379 22 0 19.7558 0 16.9999C0 14.2637 2.26379 12 5 12C7.74607 12 10 14.2539 10 16.9999ZM4.39961 14.4704V16.3996H2.47048C2.11615 16.3996 1.87009 16.6359 1.87009 16.9999C1.87009 17.3642 2.11615 17.6004 2.47048 17.6004H4.39961V19.5295C4.39961 19.8937 4.63583 20.1299 5 20.1299C5.36417 20.1299 5.60039 19.8937 5.60039 19.5295V17.6004H7.52954C7.88386 17.6004 8.12993 17.3642 8.12993 16.9999C8.12993 16.6359 7.88386 16.3996 7.52954 16.3996H5.60039V14.4704C5.60039 14.1162 5.36417 13.8701 5 13.8701C4.63583 13.8701 4.39961 14.1162 4.39961 14.4704Z" fill="currentColor" />
</svg>