<svg width="24" height="24" viewBox="0 0 24 24" fill="none" xmlns="http://www.w3.org/2000/svg">
    <path fill-rule="evenodd" clip-rule="evenodd"
        d="M12.8 3C12.8 2.55817 12.4418 2.2 12 2.2C11.5582 2.2 11.2 2.55817 11.2 3V6C11.2 6.44182 11.5582 6.8 12 6.8C12.4418 6.8 12.8 6.44182 12.8 6V3ZM12.8 18C12.8 17.5582 12.4418 17.2 12 17.2C11.5582 17.2 11.2 17.5582 11.2 18V21C11.2 21.4418 11.5582 21.8 12 21.8C12.4418 21.8 12.8 21.4418 12.8 21V18ZM21.8 12C21.8 12.4418 21.4418 12.8 21 12.8L18 12.8C17.5582 12.8 17.2 12.4418 17.2 12C17.2 11.5582 17.5582 11.2 18 11.2H21C21.4418 11.2 21.8 11.5582 21.8 12ZM6.00001 12.8C6.44184 12.8 6.80001 12.4418 6.80001 12C6.80001 11.5582 6.44184 11.2 6.00001 11.2H3.00001C2.55818 11.2 2.20001 11.5582 2.20001 12C2.20001 12.4418 2.55818 12.8 3.00001 12.8L6.00001 12.8ZM18.9296 5.07036C19.2421 5.38278 19.2421 5.88931 18.9296 6.20173L16.8083 8.32305C16.4959 8.63547 15.9894 8.63547 15.677 8.32305C15.3645 8.01063 15.3645 7.5041 15.677 7.19168L17.7983 5.07036C18.1107 4.75794 18.6172 4.75794 18.9296 5.07036ZM8.32302 16.8084C8.63544 16.4959 8.63544 15.9894 8.32302 15.677C8.0106 15.3646 7.50407 15.3646 7.19165 15.677L5.07033 17.7983C4.75791 18.1107 4.75791 18.6173 5.07033 18.9297C5.38275 19.2421 5.88928 19.2421 6.2017 18.9297L8.32302 16.8084ZM18.9296 18.9296C18.6172 19.2421 18.1107 19.2421 17.7983 18.9296L15.677 16.8083C15.3645 16.4959 15.3645 15.9894 15.677 15.6769C15.9894 15.3645 16.4959 15.3645 16.8083 15.6769L18.9296 17.7983C19.2421 18.1107 19.2421 18.6172 18.9296 18.9296ZM7.19165 8.32301C7.50407 8.63543 8.0106 8.63543 8.32302 8.32301C8.63544 8.01059 8.63544 7.50406 8.32302 7.19164L6.2017 5.07032C5.88928 4.7579 5.38275 4.7579 5.07033 5.07032C4.75791 5.38273 4.75791 5.88927 5.07033 6.20169L7.19165 8.32301Z"
        fill="#1A1818"
        style="fill:#1A1818;fill:color(display-p3 0.1020 0.0941 0.0941);fill-opacity:1;" />
</svg>