<svg width="33" height="32" viewBox="0 0 33 32" fill="none" xmlns="http://www.w3.org/2000/svg">
<path d="M20.765 8.58496C20.5358 8.58496 20.3425 8.50618 20.1849 8.34863C20.0345 8.19108 19.9594 7.99772 19.9594 7.76855C19.9594 7.54655 20.0345 7.35677 20.1849 7.19922C20.3425 7.04167 20.5358 6.96289 20.765 6.96289H26.8236C27.0528 6.96289 27.2461 7.04167 27.4037 7.19922C27.5684 7.35677 27.6508 7.54655 27.6508 7.76855C27.6508 7.99772 27.5684 8.19108 27.4037 8.34863C27.2461 8.50618 27.0528 8.58496 26.8236 8.58496H20.765ZM20.765 14.2139C20.5358 14.2139 20.3425 14.1351 20.1849 13.9775C20.0345 13.82 19.9594 13.6266 19.9594 13.3975C19.9594 13.1683 20.0345 12.9785 20.1849 12.8281C20.3425 12.6706 20.5358 12.5918 20.765 12.5918H26.8236C27.0528 12.5918 27.2461 12.6706 27.4037 12.8281C27.5684 12.9785 27.6508 13.1683 27.6508 13.3975C27.6508 13.6266 27.5684 13.82 27.4037 13.9775C27.2461 14.1351 27.0528 14.2139 26.8236 14.2139H20.765ZM6.81091 19.8428C6.58891 19.8428 6.39913 19.764 6.24158 19.6064C6.08403 19.4489 6.00525 19.2555 6.00525 19.0264C6.00525 18.7972 6.08403 18.6074 6.24158 18.457C6.39913 18.2995 6.58891 18.2207 6.81091 18.2207H26.8236C27.0528 18.2207 27.2461 18.2995 27.4037 18.457C27.5684 18.6074 27.6508 18.7972 27.6508 19.0264C27.6508 19.2555 27.5684 19.4489 27.4037 19.6064C27.2461 19.764 27.0528 19.8428 26.8236 19.8428H6.81091ZM6.81091 25.4609C6.58891 25.4609 6.39913 25.3822 6.24158 25.2246C6.08403 25.0742 6.00525 24.8844 6.00525 24.6553C6.00525 24.4261 6.08403 24.2327 6.24158 24.0752C6.39913 23.9176 6.58891 23.8389 6.81091 23.8389H26.8236C27.0528 23.8389 27.2461 23.9176 27.4037 24.0752C27.5684 24.2327 27.6508 24.4261 27.6508 24.6553C27.6508 24.8844 27.5684 25.0742 27.4037 25.2246C27.2461 25.3822 27.0528 25.4609 26.8236 25.4609H6.81091ZM8.97009 14.9121C8.15369 14.9121 7.45903 14.6257 6.88611 14.0527C6.32035 13.4727 6.03748 12.6992 6.03748 11.7324C6.03748 10.8301 6.24874 10.0173 6.67126 9.29395C7.10095 8.57064 7.65955 8.0013 8.34705 7.58594C9.04171 7.16341 9.79366 6.95215 10.6029 6.95215C10.8679 6.95215 11.0899 7.0166 11.2689 7.14551C11.448 7.27441 11.5375 7.46061 11.5375 7.7041C11.5375 7.90462 11.4694 8.07292 11.3334 8.20898C11.1973 8.34505 11.029 8.41667 10.8285 8.42383C10.2341 8.45247 9.70772 8.60645 9.24939 8.88574C8.79106 9.16504 8.42582 9.5446 8.15369 10.0244C7.88155 10.5042 7.72758 11.0592 7.69177 11.6895L7.5199 11.668C7.62732 11.2025 7.83142 10.8551 8.1322 10.626C8.43298 10.3896 8.80538 10.2715 9.24939 10.2715C9.88676 10.2715 10.4131 10.4792 10.8285 10.8945C11.251 11.3099 11.4623 11.8613 11.4623 12.5488C11.4623 13.0286 11.3477 13.4476 11.1185 13.8057C10.8965 14.1566 10.5957 14.4287 10.2162 14.6221C9.83663 14.8154 9.42126 14.9121 8.97009 14.9121ZM15.5443 14.9121C14.7279 14.9121 14.0332 14.6257 13.4603 14.0527C12.8946 13.4727 12.6117 12.6992 12.6117 11.7324C12.6117 10.8301 12.823 10.0173 13.2455 9.29395C13.6752 8.57064 14.2373 8.0013 14.932 7.58594C15.6267 7.16341 16.375 6.95215 17.1771 6.95215C17.4493 6.95215 17.6748 7.0166 17.8539 7.14551C18.0329 7.27441 18.1224 7.46061 18.1224 7.7041C18.1224 7.90462 18.0544 8.07292 17.9183 8.20898C17.7823 8.34505 17.6068 8.41667 17.392 8.42383C16.8047 8.45247 16.2819 8.60645 15.8236 8.88574C15.3653 9.15788 15 9.53743 14.7279 10.0244C14.4558 10.5042 14.3018 11.0592 14.266 11.6895L14.0941 11.668C14.2015 11.2025 14.4056 10.8551 14.7064 10.626C15.0144 10.3896 15.3868 10.2715 15.8236 10.2715C16.4681 10.2715 16.9981 10.4792 17.4135 10.8945C17.836 11.3099 18.0472 11.8613 18.0472 12.5488C18.0472 13.0286 17.9327 13.4476 17.7035 13.8057C17.4743 14.1566 17.17 14.4287 16.7904 14.6221C16.4108 14.8154 15.9955 14.9121 15.5443 14.9121Z" fill="black" style="fill:black;fill-opacity:1;"/>
</svg>
