<svg width="33" height="32" viewBox="0 0 33 32" fill="none" xmlns="http://www.w3.org/2000/svg">
<path d="M11.9401 10.626C11.6966 10.626 11.4889 10.5436 11.317 10.3789C11.1523 10.2142 11.0699 10.0101 11.0699 9.7666C11.0699 9.52311 11.1523 9.31901 11.317 9.1543C11.4889 8.98242 11.6966 8.89648 11.9401 8.89648H26.6139C26.8574 8.89648 27.0615 8.98242 27.2262 9.1543C27.3981 9.31901 27.484 9.52311 27.484 9.7666C27.484 10.0101 27.3981 10.2142 27.2262 10.3789C27.0615 10.5436 26.8574 10.626 26.6139 10.626H11.9401ZM11.9401 17.125C11.6966 17.125 11.4889 17.0426 11.317 16.8779C11.1523 16.7061 11.0699 16.4984 11.0699 16.2549C11.0699 16.0114 11.1523 15.8073 11.317 15.6426C11.4889 15.4779 11.6966 15.3955 11.9401 15.3955H26.6139C26.8574 15.3955 27.0615 15.4779 27.2262 15.6426C27.3981 15.8073 27.484 16.0114 27.484 16.2549C27.484 16.4984 27.3981 16.7061 27.2262 16.8779C27.0615 17.0426 26.8574 17.125 26.6139 17.125H11.9401ZM11.9401 23.6133C11.6966 23.6133 11.4889 23.5309 11.317 23.3662C11.1523 23.2015 11.0699 22.9974 11.0699 22.7539C11.0699 22.5104 11.1523 22.3063 11.317 22.1416C11.4889 21.9697 11.6966 21.8838 11.9401 21.8838H26.6139C26.8574 21.8838 27.0615 21.9697 27.2262 22.1416C27.3981 22.3063 27.484 22.5104 27.484 22.7539C27.484 22.9974 27.3981 23.2015 27.2262 23.3662C27.0615 23.5309 26.8574 23.6133 26.6139 23.6133H11.9401ZM7.19202 11.1094C6.81962 11.1094 6.50094 10.9805 6.23596 10.7227C5.97099 10.4577 5.8385 10.139 5.8385 9.7666C5.8385 9.38704 5.97099 9.06836 6.23596 8.81055C6.50094 8.54557 6.81962 8.41309 7.19202 8.41309C7.56441 8.41309 7.8831 8.54557 8.14807 8.81055C8.41305 9.06836 8.54553 9.38704 8.54553 9.7666C8.54553 10.139 8.41305 10.4577 8.14807 10.7227C7.8831 10.9805 7.56441 11.1094 7.19202 11.1094ZM7.19202 17.6084C6.81962 17.6084 6.50094 17.4759 6.23596 17.2109C5.97099 16.946 5.8385 16.6273 5.8385 16.2549C5.8385 15.8825 5.97099 15.5638 6.23596 15.2988C6.50094 15.0339 6.81962 14.9014 7.19202 14.9014C7.56441 14.9014 7.8831 15.0339 8.14807 15.2988C8.41305 15.5638 8.54553 15.8825 8.54553 16.2549C8.54553 16.6273 8.41305 16.946 8.14807 17.2109C7.8831 17.4759 7.56441 17.6084 7.19202 17.6084ZM7.19202 24.1074C6.81962 24.1074 6.50094 23.9749 6.23596 23.71C5.97099 23.445 5.8385 23.1263 5.8385 22.7539C5.8385 22.3743 5.97099 22.0557 6.23596 21.7979C6.50094 21.5329 6.81962 21.4004 7.19202 21.4004C7.56441 21.4004 7.8831 21.5329 8.14807 21.7979C8.41305 22.0557 8.54553 22.3743 8.54553 22.7539C8.54553 23.1263 8.41305 23.445 8.14807 23.71C7.8831 23.9749 7.56441 24.1074 7.19202 24.1074Z" fill="black" style="fill:black;fill-opacity:1;"/>
</svg>
