<svg width="24" height="24" viewBox="0 0 24 24" fill="none" xmlns="http://www.w3.org/2000/svg">
<path fill-rule="evenodd" clip-rule="evenodd" d="M8.07519 5.30431C8.37464 4.40596 9.21534 3.80001 10.1623 3.80001H13.8377C14.7847 3.80001 15.6254 4.40596 15.9248 5.30431L16.0479 5.67362C16.2722 6.34629 16.9017 6.80001 17.6107 6.80001C19.0407 6.80001 20.2 7.95928 20.2 9.3893V17C20.2 18.7673 18.7673 20.2 17 20.2H7.00001C5.2327 20.2 3.80001 18.7673 3.80001 17V9.3893C3.80001 7.95927 4.95927 6.80001 6.3893 6.80001C7.09835 6.80001 7.72786 6.34629 7.95208 5.67362L8.07519 5.30431ZM10.1623 2.20001C8.52665 2.20001 7.07453 3.24665 6.55729 4.79835L6.43419 5.16765C6.42775 5.18698 6.40967 5.20001 6.3893 5.20001C4.07562 5.20001 2.20001 7.07562 2.20001 9.3893V17C2.20001 19.651 4.34905 21.8 7.00001 21.8H17C19.651 21.8 21.8 19.651 21.8 17V9.3893C21.8 7.07562 19.9244 5.20001 17.6107 5.20001C17.5904 5.20001 17.5723 5.18698 17.5658 5.16765L17.4427 4.79835C16.9255 3.24665 15.4734 2.20001 13.8377 2.20001H10.1623ZM8.80001 13C8.80001 11.2327 10.2327 9.80001 12 9.80001C13.7673 9.80001 15.2 11.2327 15.2 13C15.2 14.7673 13.7673 16.2 12 16.2C10.2327 16.2 8.80001 14.7673 8.80001 13ZM12 8.20001C9.34905 8.20001 7.20001 10.349 7.20001 13C7.20001 15.651 9.34905 17.8 12 17.8C14.651 17.8 16.8 15.651 16.8 13C16.8 10.349 14.651 8.20001 12 8.20001Z" fill="#1A1818" style="fill:#1A1818;fill:color(display-p3 0.1020 0.0941 0.0941);fill-opacity:1;"/>
</svg>
