<svg width="24" height="24" viewBox="0 0 24 24" fill="none" xmlns="http://www.w3.org/2000/svg">
<path fill-rule="evenodd" clip-rule="evenodd" d="M8.07519 5.30431C8.37464 4.40596 9.21534 3.80001 10.1623 3.80001H13.8377C14.7847 3.80001 15.6254 4.40596 15.9248 5.30431L16.0131 5.56922C16.2581 6.30424 16.946 6.80001 17.7208 6.80001H18C19.7673 6.80001 21.2 8.2327 21.2 10V17C21.2 18.7673 19.7673 20.2 18 20.2H6.00001C4.2327 20.2 2.80001 18.7673 2.80001 17V10C2.80001 8.2327 4.2327 6.80001 6.00001 6.80001H6.27925C7.05403 6.80001 7.74188 6.30424 7.98688 5.56922L8.07519 5.30431ZM10.1623 2.20001C8.52665 2.20001 7.07453 3.24665 6.55729 4.79835L6.46899 5.06326C6.44177 5.14493 6.36534 5.20001 6.27925 5.20001H6.00001C3.34905 5.20001 1.20001 7.34905 1.20001 10V17C1.20001 19.651 3.34905 21.8 6.00001 21.8H18C20.651 21.8 22.8 19.651 22.8 17V10C22.8 7.34905 20.651 5.20001 18 5.20001H17.7208C17.6347 5.20001 17.5583 5.14493 17.531 5.06326L17.4427 4.79835C16.9255 3.24665 15.4734 2.20001 13.8377 2.20001H10.1623ZM8.80001 13C8.80001 11.2327 10.2327 9.80001 12 9.80001C13.7673 9.80001 15.2 11.2327 15.2 13C15.2 14.7673 13.7673 16.2 12 16.2C10.2327 16.2 8.80001 14.7673 8.80001 13ZM12 8.20001C9.34905 8.20001 7.20001 10.349 7.20001 13C7.20001 15.651 9.34905 17.8 12 17.8C14.651 17.8 16.8 15.651 16.8 13C16.8 10.349 14.651 8.20001 12 8.20001Z" fill="#1A1818" style="fill:#1A1818;fill:color(display-p3 0.1020 0.0941 0.0941);fill-opacity:1;"/>
</svg>
