<svg width="24" height="24" viewBox="0 0 24 24" fill="none" xmlns="http://www.w3.org/2000/svg">
<path d="M4.8 10.8H9.23444C10.6465 10.8 11.8377 9.7485 12.0128 8.3473L12.7062 2.8H17C18.215 2.8 19.2 3.78497 19.2 5V19C19.2 20.215 18.215 21.2 17 21.2H7C5.78497 21.2 4.8 20.215 4.8 19V10.8ZM11.0931 2.80508L10.4252 8.14884C10.3501 8.74936 9.83962 9.2 9.23444 9.2H4.80041C4.81141 8.63196 5.04185 8.08952 5.44437 7.68701L9.68701 3.44437C10.0642 3.06717 10.5643 2.84108 11.0931 2.80508Z" stroke="#1A1818" style="stroke:#1A1818;stroke:color(display-p3 0.1020 0.0941 0.0941);stroke-opacity:1;" stroke-width="1.6"/>
</svg>
