<svg width="24" height="24" viewBox="0 0 24 24" fill="none" xmlns="http://www.w3.org/2000/svg">
<path fill-rule="evenodd" clip-rule="evenodd" d="M7.0164 15H5C3.34315 15 2 13.6569 2 12V5C2 3.34315 3.34315 2 5 2H12C13.6569 2 15 3.34315 15 5V7.0164C18.909 7.27369 22 10.5259 22 14.5C22 18.6421 18.6421 22 14.5 22C10.5259 22 7.27369 18.909 7.0164 15ZM13.4 7.0801V7.0164V5C13.4 4.2268 12.7732 3.6 12 3.6H5C4.2268 3.6 3.6 4.2268 3.6 5V12C3.6 12.7732 4.2268 13.4 5 13.4H7.0164H7.0801C7.55947 10.1384 10.1384 7.55947 13.4 7.0801ZM20.4 14.5C20.4 17.7585 17.7585 20.4 14.5 20.4C11.2415 20.4 8.6 17.7585 8.6 14.5C8.6 11.2415 11.2415 8.6 14.5 8.6C17.7552 8.6 20.3947 11.2363 20.4 14.4903C20.4 14.4935 20.4 14.4968 20.4 14.5Z" fill="#1A1818"/>
</svg>
