<svg width="24" height="24" viewBox="0 0 24 24" fill="none" xmlns="http://www.w3.org/2000/svg">
<path fill-rule="evenodd" clip-rule="evenodd" d="M11.7761 4.19403C11.8833 3.7654 11.6227 3.33105 11.194 3.22389C10.7654 3.11673 10.3311 3.37734 10.2239 3.80597L9.12539 8.2H6.00001C5.55818 8.2 5.20001 8.55818 5.20001 9C5.20001 9.44183 5.55818 9.8 6.00001 9.8H8.72539L7.62539 14.2H4.00001C3.55818 14.2 3.20001 14.5582 3.20001 15C3.20001 15.4418 3.55818 15.8 4.00001 15.8H7.22539L6.2239 19.806C6.11674 20.2346 6.37735 20.669 6.80598 20.7761C7.23462 20.8833 7.66897 20.6227 7.77613 20.194L8.87463 15.8H13.2254L12.2239 19.806C12.1167 20.2346 12.3773 20.669 12.806 20.7761C13.2346 20.8833 13.669 20.6227 13.7761 20.194L14.8746 15.8H18C18.4418 15.8 18.8 15.4418 18.8 15C18.8 14.5582 18.4418 14.2 18 14.2H15.2746L16.3746 9.8H20C20.4418 9.8 20.8 9.44183 20.8 9C20.8 8.55818 20.4418 8.2 20 8.2H16.7746L17.7761 4.19403C17.8833 3.7654 17.6227 3.33105 17.194 3.22389C16.7654 3.11673 16.3311 3.37734 16.2239 3.80597L15.1254 8.2H10.7746L11.7761 4.19403ZM13.6254 14.2L14.7254 9.8H10.3746L9.27463 14.2H13.6254Z" fill="#1A1818" style="fill:#1A1818;fill:color(display-p3 0.1020 0.0941 0.0941);fill-opacity:1;"/>
</svg>
