<svg width="24" height="24" viewBox="0 0 24 24" fill="none" xmlns="http://www.w3.org/2000/svg">
<path fill-rule="evenodd" clip-rule="evenodd" d="M12 3.6H5C4.2268 3.6 3.6 4.2268 3.6 5V12C3.6 12.7732 4.2268 13.4 5 13.4H7.0801C7.55947 10.1384 10.1384 7.55947 13.4 7.0801V5C13.4 4.2268 12.7732 3.6 12 3.6ZM15 7.0164V5C15 3.34315 13.6569 2 12 2H5C3.34315 2 2 3.34315 2 5V12C2 13.6569 3.34315 15 5 15H7.0164C7.2737 18.909 10.5259 22 14.5 22C18.6421 22 22 18.6421 22 14.5C22 10.5259 18.909 7.2737 15 7.0164ZM20.4 14.5C20.4 17.7585 17.7585 20.4 14.5 20.4C11.2415 20.4 8.6 17.7585 8.6 14.5C8.6 11.2415 11.2415 8.6 14.5 8.6C17.7585 8.6 20.4 11.2415 20.4 14.5Z" fill="#1A1818" style="fill:#1A1818;fill:color(display-p3 0.1020 0.0941 0.0941);fill-opacity:1;"/>
</svg>
