<svg width="24" height="24" viewBox="0 0 24 24" fill="none" xmlns="http://www.w3.org/2000/svg">
<path fill-rule="evenodd" clip-rule="evenodd" d="M11.7761 4.19402C11.8833 3.76538 11.6227 3.33103 11.194 3.22387C10.7654 3.11671 10.331 3.37732 10.2239 3.80596L9.12538 8.19999H6C5.55817 8.19999 5.2 8.55816 5.2 8.99999C5.2 9.44182 5.55817 9.79999 6 9.79999H8.72538L7.62538 14.2H4C3.55817 14.2 3.2 14.5582 3.2 15C3.2 15.4418 3.55817 15.8 4 15.8H7.22538L6.22388 19.806C6.11672 20.2346 6.37733 20.6689 6.80597 20.7761C7.2346 20.8833 7.66895 20.6227 7.77611 20.194L8.87462 15.8H13.2254L12.2239 19.806C12.1167 20.2346 12.3773 20.6689 12.806 20.7761C13.2346 20.8833 13.669 20.6227 13.7761 20.194L14.8746 15.8H18C18.4418 15.8 18.8 15.4418 18.8 15C18.8 14.5582 18.4418 14.2 18 14.2H15.2746L16.3746 9.79999H20C20.4418 9.79999 20.8 9.44182 20.8 8.99999C20.8 8.55816 20.4418 8.19999 20 8.19999H16.7746L17.7761 4.19402C17.8833 3.76538 17.6227 3.33103 17.194 3.22387C16.7654 3.11671 16.331 3.37732 16.2239 3.80596L15.1254 8.19999H10.7746L11.7761 4.19402ZM13.6254 14.2L14.7254 9.79999H10.3746L9.27462 14.2H13.6254Z" fill="#1A1818"/>
</svg>
