<svg width="24" height="24" viewBox="0 0 24 24" fill="none" xmlns="http://www.w3.org/2000/svg">
<path d="M7.92827 19.4389C7.39299 19.4389 6.9027 19.3085 6.45739 19.0476C6.01207 18.7822 5.65672 18.4268 5.39134 17.9815C5.13045 17.5362 5 17.0459 5 16.5107C5 15.9709 5.13045 15.4783 5.39134 15.033C5.65672 14.5877 6.01207 14.2324 6.45739 13.967C6.9027 13.7016 7.39299 13.5689 7.92827 13.5689H9.49361V10.8565H7.92827C7.39299 10.8565 6.9027 10.7261 6.45739 10.4652C6.01207 10.1998 5.65672 9.84671 5.39134 9.4059C5.13045 8.96058 5 8.46804 5 7.92827C5 7.38849 5.13045 6.8982 5.39134 6.45739C5.65672 6.01207 6.01207 5.65897 6.45739 5.39808C6.9027 5.13269 7.39299 5 7.92827 5C8.46804 5 8.96058 5.13269 9.4059 5.39808C9.85121 5.65897 10.2066 6.01207 10.4719 6.45739C10.7373 6.8982 10.87 7.38849 10.87 7.92827V9.48011H13.5824V7.92827C13.5824 7.38849 13.7128 6.8982 13.9737 6.45739C14.2391 6.01207 14.5922 5.65897 15.033 5.39808C15.4783 5.13269 15.9709 5 16.5107 5C17.0504 5 17.5407 5.13269 17.9815 5.39808C18.4268 5.65897 18.7799 6.01207 19.0408 6.45739C19.3062 6.8982 19.4389 7.38849 19.4389 7.92827C19.4389 8.46804 19.3062 8.96058 19.0408 9.4059C18.7799 9.84671 18.4268 10.1998 17.9815 10.4652C17.5407 10.7261 17.0504 10.8565 16.5107 10.8565H14.9588V13.5689H16.5107C17.0504 13.5689 17.5407 13.7016 17.9815 13.967C18.4268 14.2324 18.7799 14.5877 19.0408 15.033C19.3062 15.4783 19.4389 15.9709 19.4389 16.5107C19.4389 17.0459 19.3062 17.5362 19.0408 17.9815C18.7799 18.4268 18.4268 18.7822 17.9815 19.0476C17.5407 19.3085 17.0504 19.4389 16.5107 19.4389C15.9709 19.4389 15.4783 19.3085 15.033 19.0476C14.5922 18.7822 14.2391 18.4268 13.9737 17.9815C13.7128 17.5362 13.5824 17.0459 13.5824 16.5107V14.9453H10.87V16.5107C10.87 17.0459 10.7373 17.5362 10.4719 17.9815C10.2066 18.4268 9.85121 18.7822 9.4059 19.0476C8.96058 19.3085 8.46804 19.4389 7.92827 19.4389ZM7.92827 18.0625C8.21615 18.0625 8.47704 17.9928 8.71094 17.8533C8.94934 17.7139 9.13826 17.5272 9.2777 17.2933C9.42164 17.0549 9.49361 16.794 9.49361 16.5107V14.9453H7.92827C7.64489 14.9453 7.384 15.0173 7.1456 15.1612C6.9117 15.3007 6.72502 15.4896 6.58558 15.728C6.44614 15.9619 6.37642 16.2228 6.37642 16.5107C6.37642 16.794 6.44614 17.0549 6.58558 17.2933C6.72502 17.5272 6.9117 17.7139 7.1456 17.8533C7.384 17.9928 7.64489 18.0625 7.92827 18.0625ZM7.92827 9.48011H9.49361V7.92827C9.49361 7.64039 9.42164 7.3795 9.2777 7.1456C9.13826 6.9117 8.94934 6.72502 8.71094 6.58558C8.47704 6.44614 8.21615 6.37642 7.92827 6.37642C7.64489 6.37642 7.384 6.44614 7.1456 6.58558C6.9117 6.72502 6.72502 6.9117 6.58558 7.1456C6.44614 7.3795 6.37642 7.64039 6.37642 7.92827C6.37642 8.21615 6.44614 8.47929 6.58558 8.71768C6.72502 8.95159 6.9117 9.13826 7.1456 9.2777C7.384 9.41264 7.64489 9.48011 7.92827 9.48011ZM14.9588 9.48011H16.5107C16.7985 9.48011 17.0594 9.41264 17.2933 9.2777C17.5272 9.13826 17.7139 8.95159 17.8533 8.71768C17.9928 8.47929 18.0625 8.21615 18.0625 7.92827C18.0625 7.64039 17.9928 7.3795 17.8533 7.1456C17.7139 6.9117 17.5272 6.72502 17.2933 6.58558C17.0594 6.44614 16.7985 6.37642 16.5107 6.37642C16.2228 6.37642 15.9596 6.44614 15.7212 6.58558C15.4873 6.72502 15.3007 6.9117 15.1612 7.1456C15.0263 7.3795 14.9588 7.64039 14.9588 7.92827V9.48011ZM16.5107 18.0625C16.7985 18.0625 17.0594 17.9928 17.2933 17.8533C17.5272 17.7139 17.7139 17.5272 17.8533 17.2933C17.9928 17.0549 18.0625 16.794 18.0625 16.5107C18.0625 16.2228 17.9928 15.9619 17.8533 15.728C17.7139 15.4896 17.5272 15.3007 17.2933 15.1612C17.0594 15.0173 16.7985 14.9453 16.5107 14.9453H14.9588V16.5107C14.9588 16.794 15.0263 17.0549 15.1612 17.2933C15.3007 17.5272 15.4873 17.7139 15.7212 17.8533C15.9596 17.9928 16.2228 18.0625 16.5107 18.0625ZM10.87 13.5689H13.5824V10.8565H10.87V13.5689Z" fill="#1A1818" style="fill-opacity:1;"/>
</svg>
