<svg width="24" height="24" viewBox="0 0 24 24" fill="none" xmlns="http://www.w3.org/2000/svg">
<path fill-rule="evenodd" clip-rule="evenodd" d="M6 18V19C6 20.6569 7.34315 22 9 22H19C20.6569 22 22 20.6569 22 19V9C22 7.34315 20.6569 6 19 6H18V5C18 3.34315 16.6569 2 15 2H5C3.34315 2 2 3.34315 2 5V15C2 16.6569 3.34315 18 5 18H6ZM20.4 9V19C20.4 19.7732 19.7732 20.4 19 20.4H9C8.2268 20.4 7.6 19.7732 7.6 19V9C7.6 8.2268 8.2268 7.6 9 7.6H19C19.7732 7.6 20.4 8.2268 20.4 9Z" fill="#1A1818" style="fill:#1A1818;fill:color(display-p3 0.1020 0.0941 0.0941);fill-opacity:1;"/>
</svg>
