<svg width="24" height="24" viewBox="0 0 24 24" fill="none" xmlns="http://www.w3.org/2000/svg">
<g clip-path="url(#clip0_5263_19901)">
<path fill-rule="evenodd" clip-rule="evenodd" d="M-0.799988 6.00001C-0.799988 3.90133 0.90133 2.20001 3.00001 2.20001H21C23.0987 2.20001 24.8 3.90133 24.8 6.00001V10.2H25C25.4418 10.2 25.8 10.5582 25.8 11C25.8 11.4418 25.4418 11.8 25 11.8H24.8V13.2H25C25.4418 13.2 25.8 13.5582 25.8 14C25.8 14.4418 25.4418 14.8 25 14.8H24.7157C24.6058 15.3127 24.3925 15.787 24.0988 16.2H25C25.4418 16.2 25.8 16.5582 25.8 17C25.8 17.4418 25.4418 17.8 25 17.8H24C23.5903 17.8 23.2525 17.492 23.2056 17.0948C22.5837 17.5388 21.8224 17.8 21 17.8H16H12.8V21.0686L14.4343 19.4343C14.7467 19.1219 15.2533 19.1219 15.5657 19.4343C15.8781 19.7467 15.8781 20.2533 15.5657 20.5657L12.5657 23.5657C12.2533 23.8781 11.7467 23.8781 11.4343 23.5657L8.43433 20.5657C8.12191 20.2533 8.12191 19.7467 8.43433 19.4343C8.74675 19.1219 9.25328 19.1219 9.5657 19.4343L11.2 21.0686V17V16C11.2 15.5582 11.5582 15.2 12 15.2C12.4418 15.2 12.8 15.5582 12.8 16V16.2H16H21C22.215 16.2 23.2 15.215 23.2 14V11V6.00001C23.2 4.78499 22.215 3.80001 21 3.80001H3.00001C1.78499 3.80001 0.800012 4.78499 0.800012 6.00001V14C0.800012 15.215 1.78499 16.2 3.00001 16.2H8.00001H9.00001C9.44184 16.2 9.80001 16.5582 9.80001 17C9.80001 17.4418 9.44184 17.8 9.00001 17.8H8.00001H3.00001C0.90133 17.8 -0.799988 16.0987 -0.799988 14V6.00001ZM8.00001 13.2C7.55818 13.2 7.20001 13.5582 7.20001 14C7.20001 14.4418 7.55818 14.8 8.00001 14.8H9.00001C9.44184 14.8 9.80001 14.4418 9.80001 14C9.80001 13.5582 9.44184 13.2 9.00001 13.2H8.00001ZM11.2 14C11.2 13.5582 11.5582 13.2 12 13.2H13C13.4418 13.2 13.8 13.5582 13.8 14C13.8 14.4418 13.4418 14.8 13 14.8H12C11.5582 14.8 11.2 14.4418 11.2 14ZM16 13.2C15.5582 13.2 15.2 13.5582 15.2 14C15.2 14.4418 15.5582 14.8 16 14.8H17C17.4418 14.8 17.8 14.4418 17.8 14C17.8 13.5582 17.4418 13.2 17 13.2H16ZM19.2 14C19.2 13.5582 19.5582 13.2 20 13.2H21C21.4418 13.2 21.8 13.5582 21.8 14C21.8 14.4418 21.4418 14.8 21 14.8H20C19.5582 14.8 19.2 14.4418 19.2 14ZM7.20001 11C7.20001 10.5582 7.55818 10.2 8.00001 10.2H9.00001C9.44184 10.2 9.80001 10.5582 9.80001 11C9.80001 11.4418 9.44184 11.8 9.00001 11.8H8.00001C7.55818 11.8 7.20001 11.4418 7.20001 11ZM12 10.2C11.5582 10.2 11.2 10.5582 11.2 11C11.2 11.4418 11.5582 11.8 12 11.8H13C13.4418 11.8 13.8 11.4418 13.8 11C13.8 10.5582 13.4418 10.2 13 10.2H12ZM15.2 11C15.2 10.5582 15.5582 10.2 16 10.2H17C17.4418 10.2 17.8 10.5582 17.8 11C17.8 11.4418 17.4418 11.8 17 11.8H16C15.5582 11.8 15.2 11.4418 15.2 11ZM20 10.2C19.5582 10.2 19.2 10.5582 19.2 11C19.2 11.4418 19.5582 11.8 20 11.8H21C21.4418 11.8 21.8 11.4418 21.8 11C21.8 10.5582 21.4418 10.2 21 10.2H20Z" fill="#1A1818" style="fill:#1A1818;fill:color(display-p3 0.1020 0.0941 0.0941);fill-opacity:1;"/>
</g>
<defs>
<clipPath id="clip0_5263_19901">
<rect width="24" height="24" fill="white" style="fill:white;fill-opacity:1;"/>
</clipPath>
</defs>
</svg>
