<svg width="24" height="24" viewBox="0 0 24 24" fill="none" xmlns="http://www.w3.org/2000/svg">
<path d="M6.5625 20.9238C5.54688 20.9238 4.7819 20.6699 4.26758 20.1621C3.75326 19.6608 3.49609 18.9056 3.49609 17.8965V6.64649C3.49609 5.63738 3.75326 4.88217 4.26758 4.38087C4.7819 3.87305 5.54688 3.61915 6.5625 3.61915H17.627L16.0547 5.19141H6.5918C6.10352 5.19141 5.72591 5.32162 5.45898 5.58204C5.19857 5.84245 5.06836 6.22657 5.06836 6.73438V17.8184C5.06836 18.3262 5.19857 18.7103 5.45898 18.9707C5.72591 19.2246 6.10352 19.3516 6.5918 19.3516H18.0078C18.3464 19.3516 18.6328 19.2246 18.8672 18.9707C19.1081 18.7103 19.2285 18.3262 19.2285 17.8184V8.44337L20.8008 6.8711V17.8965C20.8008 18.9056 20.5566 19.6608 20.0684 20.1621C19.5866 20.6699 18.9062 20.9238 18.0273 20.9238H6.5625ZM10.1172 14.5957C10.026 14.6348 9.94141 14.6152 9.86328 14.5371C9.79167 14.4525 9.77539 14.3678 9.81445 14.2832L10.6934 12.4473L19.8047 3.33594L21.1426 4.6543L12.0215 13.7656L10.1172 14.5957ZM21.8652 3.94141L20.5273 2.59376L21.2402 1.89063C21.403 1.73438 21.5885 1.64975 21.7969 1.63672C22.0117 1.6237 22.194 1.69206 22.3438 1.8418L22.5684 2.07618C22.7376 2.23894 22.819 2.42774 22.8125 2.64258C22.8125 2.85092 22.7311 3.04297 22.5684 3.21876L21.8652 3.94141Z" fill="#1A1818" />
</svg>