<svg width="24" height="24" viewBox="0 0 24 24" fill="none" xmlns="http://www.w3.org/2000/svg">
<path fill-rule="evenodd" clip-rule="evenodd" d="M7.72639 11.1737L13.8999 5.00027C14.4466 4.45354 15.333 4.45354 15.8798 5.00027L19.9997 9.12023C20.5465 9.66696 20.5465 10.5534 19.9997 11.1001L13.8263 17.2736L7.72639 11.1737ZM6.59502 12.3051L4.00038 14.8998C3.45364 15.4465 3.45364 16.3329 4.00038 16.8797L6.06036 18.9396L6.22119 19.1005C6.48534 19.3646 6.84412 19.5123 7.21768 19.5105L11.0338 19.4927C11.4028 19.491 11.7563 19.3436 12.0172 19.0826L12.6949 18.405L6.59502 12.3051ZM7.22516 21.1105C6.42466 21.1142 5.65586 20.7979 5.08982 20.2318L4.92899 20.071L2.86901 18.011C1.69743 16.8395 1.69743 14.94 2.86901 13.7684L12.7685 3.8689C13.9401 2.69733 15.8396 2.69733 17.0111 3.8689L21.1311 7.98886C22.3027 9.16043 22.3027 11.0599 21.1311 12.2315L14.7671 18.5955L13.1486 20.214C12.5894 20.7732 11.8321 21.089 11.0413 21.0927L7.22516 21.1105Z" fill="#1A1818"/>
</svg>
