<svg width="22" height="14" viewBox="0 0 22 14" fill="none" xmlns="http://www.w3.org/2000/svg">
<path d="M21 7L21.6412 7.47844L21.9982 7L21.6412 6.52156L21 7ZM1 7L0.35883 6.52156L0.00182486 7L0.35883 7.47844L1 7ZM21 7C20.3588 6.52156 20.359 6.5214 20.3591 6.52126C20.3591 6.52125 20.3592 6.52113 20.3592 6.5211C20.3592 6.52103 20.3592 6.52105 20.3591 6.52117C20.359 6.5214 20.3585 6.52198 20.3578 6.52292C20.3564 6.5248 20.3539 6.52808 20.3504 6.53273C20.3433 6.54202 20.332 6.55676 20.3166 6.57659C20.2858 6.61624 20.2386 6.6762 20.1758 6.75355C20.0501 6.90832 19.8624 7.13232 19.6194 7.40246C19.1324 7.94376 18.4283 8.66484 17.5605 9.38408C15.8024 10.8414 13.4829 12.2 11 12.2V13.8C14.0399 13.8 16.7204 12.1586 18.5816 10.6159C19.5235 9.83516 20.2838 9.05624 20.8089 8.47254C21.0719 8.18018 21.2771 7.93543 21.4179 7.76208C21.4883 7.67537 21.5427 7.60641 21.5801 7.55818C21.5989 7.53406 21.6134 7.51511 21.6236 7.5017C21.6287 7.49499 21.6327 7.48967 21.6357 7.48578C21.6371 7.48383 21.6383 7.48224 21.6392 7.48102C21.6397 7.4804 21.6401 7.47988 21.6404 7.47945C21.6406 7.47924 21.6408 7.47898 21.6408 7.47888C21.641 7.47864 21.6412 7.47844 21 7ZM11 1.8C13.4829 1.8 15.8024 3.15862 17.5605 4.61592C18.4283 5.33516 19.1324 6.05624 19.6194 6.59754C19.8624 6.86768 20.0501 7.09168 20.1758 7.24645C20.2386 7.3238 20.2858 7.38376 20.3166 7.42341C20.332 7.44324 20.3433 7.45798 20.3504 7.46727C20.3539 7.47192 20.3564 7.4752 20.3578 7.47708C20.3585 7.47802 20.359 7.4786 20.3591 7.47883C20.3592 7.47895 20.3592 7.47897 20.3592 7.4789C20.3592 7.47887 20.3591 7.47875 20.3591 7.47874C20.359 7.4786 20.3588 7.47844 21 7C21.6412 6.52156 21.641 6.52136 21.6408 6.52112C21.6408 6.52102 21.6406 6.52076 21.6404 6.52055C21.6401 6.52012 21.6397 6.5196 21.6392 6.51898C21.6383 6.51776 21.6371 6.51617 21.6357 6.51422C21.6327 6.51033 21.6287 6.50501 21.6236 6.4983C21.6134 6.48489 21.5989 6.46594 21.5801 6.44182C21.5427 6.39359 21.4883 6.32463 21.4179 6.23792C21.2771 6.06457 21.0719 5.81982 20.8089 5.52746C20.2838 4.94376 19.5235 4.16484 18.5816 3.38408C16.7204 1.84138 14.0399 0.2 11 0.2V1.8ZM1 7C1.64117 7.47844 1.64105 7.4786 1.64094 7.47874C1.64093 7.47875 1.64084 7.47887 1.64082 7.4789C1.64077 7.47897 1.64079 7.47895 1.64087 7.47883C1.64105 7.4786 1.64149 7.47802 1.64219 7.47708C1.64361 7.4752 1.64609 7.47192 1.64962 7.46727C1.6567 7.45798 1.66799 7.44324 1.68339 7.42341C1.71419 7.38376 1.76142 7.3238 1.82423 7.24645C1.94989 7.09168 2.13759 6.86768 2.3806 6.59754C2.86756 6.05624 3.57175 5.33516 4.43946 4.61592C6.19759 3.15862 8.51708 1.8 11 1.8V0.2C7.96007 0.2 5.27956 1.84138 3.4184 3.38408C2.47647 4.16484 1.7162 4.94376 1.1911 5.52746C0.928083 5.81982 0.722852 6.06457 0.582103 6.23792C0.5117 6.32463 0.457343 6.39359 0.419871 6.44182C0.401132 6.46594 0.386607 6.48489 0.376401 6.4983C0.371297 6.50501 0.367273 6.51033 0.36434 6.51422C0.362874 6.51617 0.361681 6.51776 0.360762 6.51898C0.360302 6.5196 0.359911 6.52012 0.359589 6.52055C0.359428 6.52076 0.359238 6.52102 0.359158 6.52112C0.358985 6.52136 0.35883 6.52156 1 7ZM11 12.2C8.51708 12.2 6.19759 10.8414 4.43946 9.38408C3.57175 8.66484 2.86756 7.94376 2.3806 7.40246C2.13759 7.13232 1.94989 6.90832 1.82423 6.75355C1.76142 6.6762 1.71419 6.61624 1.68339 6.57659C1.66799 6.55676 1.6567 6.54202 1.64962 6.53273C1.64609 6.52808 1.64361 6.5248 1.64219 6.52292C1.64149 6.52198 1.64105 6.5214 1.64087 6.52117C1.64079 6.52105 1.64077 6.52103 1.64082 6.5211C1.64084 6.52113 1.64093 6.52125 1.64094 6.52126C1.64105 6.5214 1.64117 6.52156 1 7C0.35883 7.47844 0.358985 7.47864 0.359158 7.47888C0.359238 7.47898 0.359428 7.47924 0.359589 7.47945C0.359911 7.47988 0.360302 7.4804 0.360762 7.48102C0.361681 7.48224 0.362874 7.48383 0.36434 7.48578C0.367273 7.48967 0.371297 7.49499 0.376401 7.5017C0.386607 7.51511 0.401132 7.53406 0.419871 7.55818C0.457343 7.60641 0.5117 7.67537 0.582103 7.76208C0.722852 7.93543 0.928083 8.18018 1.1911 8.47254C1.7162 9.05624 2.47647 9.83516 3.4184 10.6159C5.27956 12.1586 7.96007 13.8 11 13.8V12.2ZM1 7.8H21V6.2H1V7.8ZM13.2 7C13.2 8.21503 12.215 9.2 11 9.2V10.8C13.0987 10.8 14.8 9.09868 14.8 7H13.2ZM11 9.2C9.78497 9.2 8.8 8.21503 8.8 7H7.2C7.2 9.09868 8.90132 10.8 11 10.8V9.2Z" fill="#1A1818" style="fill:#1A1818;fill:color(display-p3 0.1020 0.0941 0.0941);fill-opacity:1;"/>
</svg>
