<svg width="20" height="12" viewBox="0 0 20 12" fill="none" xmlns="http://www.w3.org/2000/svg">
<path d="M1.3806 6.40246C1.24601 6.25285 1.12839 6.11739 1.02888 6C1.12839 5.88261 1.24601 5.74715 1.3806 5.59754C1.86756 5.05624 2.57175 4.33516 3.43946 3.61592C5.19759 2.15862 7.51708 0.8 10 0.8C12.4829 0.8 14.8024 2.15862 16.5605 3.61592C17.4283 4.33516 18.1324 5.05624 18.6194 5.59754C18.754 5.74715 18.8716 5.88261 18.9711 6C18.8716 6.11739 18.754 6.25285 18.6194 6.40246C18.1324 6.94376 17.4283 7.66484 16.5605 8.38408C14.8024 9.84138 12.4829 11.2 10 11.2C7.51708 11.2 5.19759 9.84138 3.43946 8.38408C2.57175 7.66484 1.86756 6.94376 1.3806 6.40246Z" stroke="#1A1818" style="stroke:#1A1818;stroke:color(display-p3 0.1020 0.0941 0.0941);stroke-opacity:1;" stroke-width="1.6"/>
<circle cx="10" cy="6" r="3" fill="#1A1818" style="fill:#1A1818;fill:color(display-p3 0.1020 0.0941 0.0941);fill-opacity:1;"/>
</svg>
