<svg width="24" height="24" viewBox="0 0 24 24" fill="none" xmlns="http://www.w3.org/2000/svg">
<path fill-rule="evenodd" clip-rule="evenodd" d="M7 2.19995C4.34903 2.19995 2.2 4.34898 2.2 6.99995V12V17C2.2 19.6509 4.34903 21.7999 7 21.7999H12H17C19.651 21.7999 21.8 19.6509 21.8 17V12V6.99995C21.8 4.34898 19.651 2.19995 17 2.19995H12H7ZM3.8 6.99995C3.8 5.23264 5.23269 3.79995 7 3.79995H11.2V8.9875L10.1399 7.13232C9.20509 5.49641 6.8243 5.56249 5.98168 7.24773C5.39902 8.41305 5.87136 9.83006 7.03668 10.4127L8.61114 11.2H3.8V6.99995ZM10.0686 12.8H3.8V17C3.8 18.7673 5.23269 20.2 7 20.2H11.2V13.9313L7.56568 17.5656C7.25326 17.8781 6.74673 17.8781 6.43431 17.5656C6.12189 17.2532 6.12189 16.7467 6.43431 16.4343L10.0686 12.8ZM12.8 13.9313V20.2H17C18.7673 20.2 20.2 18.7673 20.2 17V12.8H13.9314L17.5657 16.4343C17.8781 16.7467 17.8781 17.2532 17.5657 17.5656C17.2533 17.8781 16.7467 17.8781 16.4343 17.5656L12.8 13.9313ZM15.3889 11.2H20.2V6.99995C20.2 5.23264 18.7673 3.79995 17 3.79995H12.8V8.9875L13.8601 7.13232C14.7949 5.49641 17.1757 5.56249 18.0183 7.24773C18.601 8.41305 18.1286 9.83006 16.9633 10.4127L15.3889 11.2ZM16.2478 8.98163L14.0055 10.1028L15.2493 7.92614C15.5501 7.39977 16.3161 7.42103 16.5872 7.96327C16.7747 8.33822 16.6227 8.79416 16.2478 8.98163ZM7.75222 8.98163L9.99449 10.1028L8.7507 7.92614C8.44992 7.39977 7.68388 7.42103 7.41276 7.96327C7.22529 8.33822 7.37727 8.79416 7.75222 8.98163Z" fill="#1A1818"/>
</svg>
