<svg width="24" height="24" viewBox="0 0 24 24" fill="none" xmlns="http://www.w3.org/2000/svg">
<path fill-rule="evenodd" clip-rule="evenodd" d="M7.00001 2.20001C4.34905 2.20001 2.20001 4.34905 2.20001 7.00001V12V17C2.20001 19.651 4.34905 21.8 7.00001 21.8H12H17C19.651 21.8 21.8 19.651 21.8 17V12V7.00001C21.8 4.34905 19.651 2.20001 17 2.20001H12H7.00001ZM3.80001 7.00001C3.80001 5.2327 5.2327 3.80001 7.00001 3.80001H11.2V8.98756L10.1399 7.13238C9.2051 5.49647 6.82432 5.56255 5.98169 7.24779C5.39904 8.41311 5.87138 9.83012 7.03669 10.4128L8.61116 11.2H3.80001V7.00001ZM10.0686 12.8H3.80001V17C3.80001 18.7673 5.2327 20.2 7.00001 20.2H11.2V13.9314L7.5657 17.5657C7.25328 17.8781 6.74675 17.8781 6.43433 17.5657C6.12191 17.2533 6.12191 16.7467 6.43433 16.4343L10.0686 12.8ZM12.8 13.9314V20.2H17C18.7673 20.2 20.2 18.7673 20.2 17V12.8H13.9314L17.5657 16.4343C17.8781 16.7467 17.8781 17.2533 17.5657 17.5657C17.2533 17.8781 16.7467 17.8781 16.4343 17.5657L12.8 13.9314ZM15.3889 11.2H20.2V7.00001C20.2 5.2327 18.7673 3.80001 17 3.80001H12.8V8.98756L13.8601 7.13238C14.7949 5.49647 17.1757 5.56255 18.0183 7.24779C18.601 8.41311 18.1286 9.83012 16.9633 10.4128L15.3889 11.2ZM16.2478 8.98169L14.0055 10.1028L15.2493 7.9262C15.5501 7.39983 16.3161 7.42109 16.5872 7.96333C16.7747 8.33828 16.6227 8.79422 16.2478 8.98169ZM7.75223 8.98169L9.99451 10.1028L8.75072 7.9262C8.44994 7.39983 7.6839 7.42109 7.41278 7.96333C7.2253 8.33828 7.37728 8.79422 7.75223 8.98169Z" fill="#1A1818" style="fill:#1A1818;fill:color(display-p3 0.1020 0.0941 0.0941);fill-opacity:1;"/>
</svg>
