<svg width="32" height="32" viewBox="0 0 32 32" fill="none" xmlns="http://www.w3.org/2000/svg">
<path d="M8.59555 15.5844H16.5733M8.59555 10V21.1689M16.5733 10V21.1689M14.9778 21.1689H18.1689M14.9778 10H18.1689M7 21.1689H10.1911M7 10H10.1911" stroke="black" stroke-linecap="round" stroke-linejoin="round"/>
<path d="M22.1689 17.6794C22.1689 16.9388 22.4631 16.2285 22.9868 15.7048C23.5105 15.1811 24.2207 14.8869 24.9614 14.8869C25.702 14.8869 26.4123 15.1811 26.9359 15.7048C27.4596 16.2285 27.7539 16.9388 27.7539 17.6794V18.3775C27.7539 19.1181 27.4596 19.8284 26.9359 20.3521C26.4123 20.8758 25.702 21.17 24.9614 21.17C24.2207 21.17 23.5105 20.8758 22.9868 20.3521C22.4631 19.8284 22.1689 19.1181 22.1689 18.3775V12.7925C22.1689 12.0519 22.4631 11.3416 22.9868 10.8179C23.5105 10.2942 24.2207 10 24.9614 10C25.702 10 26.4123 10.2942 26.9359 10.8179C27.4596 11.3416 27.7539 12.0519 27.7539 12.7925" stroke="black" stroke-linecap="round" stroke-linejoin="round"/>
</svg>
