<svg width="32" height="32" viewBox="0 0 32 32" fill="none" xmlns="http://www.w3.org/2000/svg">
<path d="M8.59555 15.5844H16.5733M8.59555 10V21.1689M16.5733 10V21.1689M14.9778 21.1689H18.1689M14.9778 10H18.1689M7 21.1689H10.1911M7 10H10.1911" stroke="black" stroke-linecap="round" stroke-linejoin="round"/>
<path d="M22.1689 12.7925C22.1689 12.2402 22.3326 11.7003 22.6395 11.2411C22.9463 10.7818 23.3824 10.4239 23.8927 10.2126C24.403 10.0012 24.9645 9.94591 25.5061 10.0537C26.0478 10.1614 26.5454 10.4274 26.9359 10.8179C27.3265 11.2084 27.5924 11.706 27.7002 12.2477C27.8079 12.7894 27.7526 13.3509 27.5413 13.8611C27.3299 14.3714 26.972 14.8075 26.5128 15.1144C26.0536 15.4212 25.5137 15.585 24.9614 15.585C25.5137 15.585 26.0536 15.7488 26.5128 16.0556C26.972 16.3625 27.3299 16.7986 27.5413 17.3089C27.7526 17.8191 27.8079 18.3806 27.7002 18.9223C27.5924 19.464 27.3265 19.9616 26.9359 20.3521C26.5454 20.7426 26.0478 21.0086 25.5061 21.1163C24.9645 21.2241 24.403 21.1688 23.8927 20.9574C23.3824 20.7461 22.9463 20.3882 22.6395 19.9289C22.3326 19.4697 22.1689 18.9298 22.1689 18.3775" stroke="black" stroke-linecap="round" stroke-linejoin="round"/>
</svg>
