<svg width="24" height="24" viewBox="0 0 24 24" fill="none" xmlns="http://www.w3.org/2000/svg">
<path d="M22 12L22.6412 12.4784L22.9982 12L22.6412 11.5216L22 12ZM2 12L1.35883 11.5216L1.00182 12L1.35883 12.4784L2 12ZM22 12C21.3588 11.5216 21.359 11.5214 21.3591 11.5213C21.3591 11.5212 21.3592 11.5211 21.3592 11.5211C21.3592 11.521 21.3592 11.5211 21.3591 11.5212C21.359 11.5214 21.3585 11.522 21.3578 11.5229C21.3564 11.5248 21.3539 11.5281 21.3504 11.5327C21.3433 11.542 21.332 11.5568 21.3166 11.5766C21.2858 11.6162 21.2386 11.6762 21.1758 11.7535C21.0501 11.9083 20.8624 12.1323 20.6194 12.4025C20.1324 12.9438 19.4283 13.6648 18.5605 14.3841C16.8024 15.8414 14.4829 17.2 12 17.2V18.8C15.0399 18.8 17.7204 17.1586 19.5816 15.6159C20.5235 14.8352 21.2838 14.0562 21.8089 13.4725C22.0719 13.1802 22.2771 12.9354 22.4179 12.7621C22.4883 12.6754 22.5427 12.6064 22.5801 12.5582C22.5989 12.5341 22.6134 12.5151 22.6236 12.5017C22.6287 12.495 22.6327 12.4897 22.6357 12.4858C22.6371 12.4838 22.6383 12.4822 22.6392 12.481C22.6397 12.4804 22.6401 12.4799 22.6404 12.4795C22.6406 12.4792 22.6408 12.479 22.6408 12.4789C22.641 12.4786 22.6412 12.4784 22 12ZM12 6.8C14.4829 6.8 16.8024 8.15862 18.5605 9.61592C19.4283 10.3352 20.1324 11.0562 20.6194 11.5975C20.8624 11.8677 21.0501 12.0917 21.1758 12.2465C21.2386 12.3238 21.2858 12.3838 21.3166 12.4234C21.332 12.4432 21.3433 12.458 21.3504 12.4673C21.3539 12.4719 21.3564 12.4752 21.3578 12.4771C21.3585 12.478 21.359 12.4786 21.3591 12.4788C21.3592 12.4789 21.3592 12.479 21.3592 12.4789C21.3592 12.4789 21.3591 12.4788 21.3591 12.4787C21.359 12.4786 21.3588 12.4784 22 12C22.6412 11.5216 22.641 11.5214 22.6408 11.5211C22.6408 11.521 22.6406 11.5208 22.6404 11.5205C22.6401 11.5201 22.6397 11.5196 22.6392 11.519C22.6383 11.5178 22.6371 11.5162 22.6357 11.5142C22.6327 11.5103 22.6287 11.505 22.6236 11.4983C22.6134 11.4849 22.5989 11.4659 22.5801 11.4418C22.5427 11.3936 22.4883 11.3246 22.4179 11.2379C22.2771 11.0646 22.0719 10.8198 21.8089 10.5275C21.2838 9.94376 20.5235 9.16484 19.5816 8.38408C17.7204 6.84138 15.0399 5.2 12 5.2V6.8ZM2 12C2.64117 12.4784 2.64105 12.4786 2.64094 12.4787C2.64093 12.4788 2.64084 12.4789 2.64082 12.4789C2.64077 12.479 2.64079 12.4789 2.64087 12.4788C2.64105 12.4786 2.64149 12.478 2.64219 12.4771C2.64361 12.4752 2.64609 12.4719 2.64962 12.4673C2.6567 12.458 2.66799 12.4432 2.68339 12.4234C2.71419 12.3838 2.76142 12.3238 2.82423 12.2465C2.94989 12.0917 3.13759 11.8677 3.3806 11.5975C3.86756 11.0562 4.57175 10.3352 5.43946 9.61592C7.19759 8.15862 9.51708 6.8 12 6.8V5.2C8.96007 5.2 6.27956 6.84138 4.4184 8.38408C3.47647 9.16484 2.7162 9.94376 2.1911 10.5275C1.92808 10.8198 1.72285 11.0646 1.5821 11.2379C1.5117 11.3246 1.45734 11.3936 1.41987 11.4418C1.40113 11.4659 1.38661 11.4849 1.3764 11.4983C1.3713 11.505 1.36727 11.5103 1.36434 11.5142C1.36287 11.5162 1.36168 11.5178 1.36076 11.519C1.3603 11.5196 1.35991 11.5201 1.35959 11.5205C1.35943 11.5208 1.35924 11.521 1.35916 11.5211C1.35899 11.5214 1.35883 11.5216 2 12ZM12 17.2C9.51708 17.2 7.19759 15.8414 5.43946 14.3841C4.57175 13.6648 3.86756 12.9438 3.3806 12.4025C3.13759 12.1323 2.94989 11.9083 2.82423 11.7535C2.76142 11.6762 2.71419 11.6162 2.68339 11.5766C2.66799 11.5568 2.6567 11.542 2.64962 11.5327C2.64609 11.5281 2.64361 11.5248 2.64219 11.5229C2.64149 11.522 2.64105 11.5214 2.64087 11.5212C2.64079 11.5211 2.64077 11.521 2.64082 11.5211C2.64084 11.5211 2.64093 11.5212 2.64094 11.5213C2.64105 11.5214 2.64117 11.5216 2 12C1.35883 12.4784 1.35899 12.4786 1.35916 12.4789C1.35924 12.479 1.35943 12.4792 1.35959 12.4795C1.35991 12.4799 1.3603 12.4804 1.36076 12.481C1.36168 12.4822 1.36287 12.4838 1.36434 12.4858C1.36727 12.4897 1.3713 12.495 1.3764 12.5017C1.38661 12.5151 1.40113 12.5341 1.41987 12.5582C1.45734 12.6064 1.5117 12.6754 1.5821 12.7621C1.72285 12.9354 1.92808 13.1802 2.1911 13.4725C2.7162 14.0562 3.47647 14.8352 4.4184 15.6159C6.27956 17.1586 8.96007 18.8 12 18.8V17.2ZM2 12.8H22V11.2H2V12.8ZM14.2 12C14.2 13.215 13.215 14.2 12 14.2V15.8C14.0987 15.8 15.8 14.0987 15.8 12H14.2ZM12 14.2C10.785 14.2 9.8 13.215 9.8 12H8.2C8.2 14.0987 9.90132 15.8 12 15.8V14.2Z" fill="#1A1818"/>
</svg>
