<svg width="24" height="24" viewBox="0 0 24 24" fill="none" xmlns="http://www.w3.org/2000/svg">
<path d="M3 10.8981C3 10.3269 3.2443 9.78285 3.67127 9.40331L10.6713 3.18109C11.429 2.50752 12.571 2.50752 13.3287 3.18109L20.3287 9.40331C20.7557 9.78285 21 10.3269 21 10.8981V20.2C21 21.1941 20.1941 22 19.2 22H15C14.4477 22 14 21.5523 14 21V18C14 16.8954 13.1046 16 12 16V16C10.8954 16 10 16.8954 10 18V21C10 21.5523 9.55228 22 9 22H4.8C3.80589 22 3 21.1941 3 20.2V10.8981Z" stroke="#1A1818" style="stroke:#1A1818;stroke:color(display-p3 0.1020 0.0941 0.0941);stroke-opacity:1;" stroke-width="1.6"/>
</svg>
