<svg width="24" height="24" viewBox="0 0 24 24" fill="none" xmlns="http://www.w3.org/2000/svg">
<path d="M12.9647 5.85597C12.4527 5.85597 12.0927 5.75997 11.8847 5.56797C11.6767 5.37597 11.5727 5.15197 11.5727 4.89597C11.5727 4.79997 11.5807 4.69597 11.5967 4.58397C11.6127 4.47197 11.6367 4.34397 11.6687 4.19997C11.7327 3.83197 11.8927 3.55197 12.1487 3.35997C12.4047 3.15197 12.7727 3.04797 13.2527 3.04797C13.7647 3.04797 14.1247 3.14397 14.3327 3.33597C14.5407 3.52797 14.6447 3.75197 14.6447 4.00797C14.6447 4.10397 14.6367 4.20797 14.6207 4.31997C14.6047 4.43197 14.5807 4.55997 14.5487 4.70397C14.4847 5.07197 14.3247 5.35997 14.0687 5.56797C13.8127 5.75997 13.4447 5.85597 12.9647 5.85597ZM11.3327 21.288C10.7247 21.288 10.2607 21.136 9.94069 20.832C9.63669 20.512 9.48469 20.112 9.48469 19.632C9.48469 19.472 9.49269 19.312 9.50869 19.152C9.54069 18.976 9.57269 18.816 9.60469 18.672L11.2367 10.224H6.77269L7.03669 8.61597H13.4207L11.3327 19.416L11.8847 19.632L16.6127 15.552L17.7407 16.608L15.5567 18.624C14.9967 19.152 14.5087 19.584 14.0927 19.92C13.6927 20.256 13.3327 20.528 13.0127 20.736C12.6927 20.944 12.3967 21.088 12.1247 21.168C11.8687 21.248 11.6047 21.288 11.3327 21.288Z" fill="#1A1818"/>
</svg>
