<svg width="33" height="32" viewBox="0 0 33 32" fill="none" xmlns="http://www.w3.org/2000/svg">
<path d="M11.9615 23.9248C11.7109 23.9248 11.5032 23.8532 11.3385 23.71C11.1809 23.5596 11.1022 23.359 11.1022 23.1084C11.1022 22.8649 11.1809 22.6715 11.3385 22.5283C11.4961 22.3851 11.7002 22.3135 11.9508 22.3135H14.3678L16.9781 10.1748H14.5719C14.3212 10.1748 14.1136 10.1032 13.9489 9.95996C13.7913 9.80957 13.7125 9.60905 13.7125 9.3584C13.7125 9.11491 13.7913 8.92155 13.9489 8.77832C14.1064 8.63509 14.3105 8.56348 14.5612 8.56348H21.3824C21.6331 8.56348 21.8372 8.63509 21.9948 8.77832C22.1523 8.92155 22.2311 9.11491 22.2311 9.3584C22.2311 9.60905 22.1487 9.80957 21.984 9.95996C21.8265 10.1032 21.6224 10.1748 21.3717 10.1748H18.9655L16.3551 22.3135H18.7614C19.0192 22.3135 19.2268 22.3851 19.3844 22.5283C19.542 22.6715 19.6207 22.8649 19.6207 23.1084C19.6207 23.359 19.5384 23.5596 19.3737 23.71C19.2161 23.8532 19.0084 23.9248 18.7506 23.9248H11.9615Z" fill="black" style="fill:black;fill-opacity:1;"/>
</svg>
