<svg width="33" height="32" viewBox="0 0 33 32" fill="none" xmlns="http://www.w3.org/2000/svg">
<path d="M16.9893 30.542C16.7887 30.542 16.5632 30.499 16.3125 30.4131C16.069 30.3343 15.8363 30.252 15.6143 30.166L10.0391 28.1143C9.82422 28.0355 9.67383 27.9173 9.58789 27.7598C9.50195 27.6022 9.45898 27.4626 9.45898 27.3408C9.45898 27.0687 9.5485 26.8395 9.72754 26.6533C9.90658 26.4743 10.1286 26.3848 10.3936 26.3848C10.5368 26.3848 10.6908 26.4134 10.8555 26.4707C11.0202 26.528 11.1634 26.5817 11.2852 26.6318L17.666 29.0059H16.334L22.7041 26.6318C22.8258 26.5817 22.9727 26.528 23.1445 26.4707C23.3164 26.4134 23.4704 26.3848 23.6064 26.3848C23.8857 26.3848 24.1113 26.4779 24.2832 26.6641C24.4551 26.8574 24.541 27.083 24.541 27.3408C24.541 27.4626 24.4945 27.6022 24.4014 27.7598C24.3154 27.9173 24.1686 28.0355 23.9609 28.1143L18.375 30.166C18.1602 30.2448 17.9274 30.3271 17.6768 30.4131C17.4333 30.499 17.2041 30.542 16.9893 30.542ZM6.84863 24.7305C5.72428 24.7305 4.87923 24.4548 4.31348 23.9033C3.75488 23.3447 3.47559 22.5104 3.47559 21.4004V11.0771C3.47559 9.97428 3.75488 9.14714 4.31348 8.5957C4.87923 8.03711 5.72428 7.75781 6.84863 7.75781H27.1406C28.2578 7.75781 29.0993 8.03711 29.665 8.5957C30.2308 9.14714 30.5137 9.97428 30.5137 11.0771V21.4004C30.5137 22.5033 30.2308 23.334 29.665 23.8926C29.0993 24.4512 28.2578 24.7305 27.1406 24.7305H6.84863ZM6.87012 23.001H27.1084C27.6383 23.001 28.0501 22.8577 28.3438 22.5713C28.6374 22.2848 28.7842 21.8623 28.7842 21.3037V11.1738C28.7842 10.6152 28.6374 10.1963 28.3438 9.91699C28.0501 9.63053 27.6383 9.4873 27.1084 9.4873H6.87012C6.33301 9.4873 5.92122 9.63053 5.63477 9.91699C5.34831 10.1963 5.20508 10.6152 5.20508 11.1738V21.3037C5.20508 21.8623 5.34831 22.2848 5.63477 22.5713C5.92122 22.8577 6.33301 23.001 6.87012 23.001ZM7.83691 13.7412C7.52181 13.7412 7.36426 13.5837 7.36426 13.2686V12.2803C7.36426 11.958 7.52181 11.7969 7.83691 11.7969H8.8252C9.14746 11.7969 9.30859 11.958 9.30859 12.2803V13.2686C9.30859 13.5837 9.14746 13.7412 8.8252 13.7412H7.83691ZM11.2959 13.7412C10.9736 13.7412 10.8125 13.5837 10.8125 13.2686V12.2803C10.8125 11.958 10.9736 11.7969 11.2959 11.7969H12.2842C12.5993 11.7969 12.7568 11.958 12.7568 12.2803V13.2686C12.7568 13.5837 12.5993 13.7412 12.2842 13.7412H11.2959ZM14.7549 13.7412C14.4326 13.7412 14.2715 13.5837 14.2715 13.2686V12.2803C14.2715 11.958 14.4326 11.7969 14.7549 11.7969H15.7324C16.0547 11.7969 16.2158 11.958 16.2158 12.2803V13.2686C16.2158 13.5837 16.0547 13.7412 15.7324 13.7412H14.7549ZM18.2031 13.7412C17.888 13.7412 17.7305 13.5837 17.7305 13.2686V12.2803C17.7305 11.958 17.888 11.7969 18.2031 11.7969H19.1914C19.5137 11.7969 19.6748 11.958 19.6748 12.2803V13.2686C19.6748 13.5837 19.5137 13.7412 19.1914 13.7412H18.2031ZM21.6621 13.7412C21.3398 13.7412 21.1787 13.5837 21.1787 13.2686V12.2803C21.1787 11.958 21.3398 11.7969 21.6621 11.7969H22.6504C22.9655 11.7969 23.123 11.958 23.123 12.2803V13.2686C23.123 13.5837 22.9655 13.7412 22.6504 13.7412H21.6621ZM25.1211 13.7412C24.7988 13.7412 24.6377 13.5837 24.6377 13.2686V12.2803C24.6377 11.958 24.7988 11.7969 25.1211 11.7969H26.0986C26.4209 11.7969 26.582 11.958 26.582 12.2803V13.2686C26.582 13.5837 26.4209 13.7412 26.0986 13.7412H25.1211ZM7.83691 17.2002C7.52181 17.2002 7.36426 17.0391 7.36426 16.7168V15.7393C7.36426 15.417 7.52181 15.2559 7.83691 15.2559H8.8252C9.14746 15.2559 9.30859 15.417 9.30859 15.7393V16.7168C9.30859 17.0391 9.14746 17.2002 8.8252 17.2002H7.83691ZM11.2959 17.2002C10.9736 17.2002 10.8125 17.0391 10.8125 16.7168V15.7393C10.8125 15.417 10.9736 15.2559 11.2959 15.2559H12.2842C12.5993 15.2559 12.7568 15.417 12.7568 15.7393V16.7168C12.7568 17.0391 12.5993 17.2002 12.2842 17.2002H11.2959ZM14.7549 17.2002C14.4326 17.2002 14.2715 17.0391 14.2715 16.7168V15.7393C14.2715 15.417 14.4326 15.2559 14.7549 15.2559H15.7324C16.0547 15.2559 16.2158 15.417 16.2158 15.7393V16.7168C16.2158 17.0391 16.0547 17.2002 15.7324 17.2002H14.7549ZM18.2031 17.2002C17.888 17.2002 17.7305 17.0391 17.7305 16.7168V15.7393C17.7305 15.417 17.888 15.2559 18.2031 15.2559H19.1914C19.5137 15.2559 19.6748 15.417 19.6748 15.7393V16.7168C19.6748 17.0391 19.5137 17.2002 19.1914 17.2002H18.2031ZM21.6621 17.2002C21.3398 17.2002 21.1787 17.0391 21.1787 16.7168V15.7393C21.1787 15.417 21.3398 15.2559 21.6621 15.2559H22.6504C22.9655 15.2559 23.123 15.417 23.123 15.7393V16.7168C23.123 17.0391 22.9655 17.2002 22.6504 17.2002H21.6621ZM25.1211 17.2002C24.7988 17.2002 24.6377 17.0391 24.6377 16.7168V15.7393C24.6377 15.417 24.7988 15.2559 25.1211 15.2559H26.0986C26.4209 15.2559 26.582 15.417 26.582 15.7393V16.7168C26.582 17.0391 26.4209 17.2002 26.0986 17.2002H25.1211ZM7.83691 20.6592C7.52181 20.6592 7.36426 20.498 7.36426 20.1758V19.1875C7.36426 18.8724 7.52181 18.7148 7.83691 18.7148H8.8252C9.14746 18.7148 9.30859 18.8724 9.30859 19.1875V20.1758C9.30859 20.498 9.14746 20.6592 8.8252 20.6592H7.83691ZM11.4033 20.6592C11.0094 20.6592 10.8125 20.4622 10.8125 20.0684V19.2949C10.8125 18.9082 11.0094 18.7148 11.4033 18.7148H22.543C22.9297 18.7148 23.123 18.9082 23.123 19.2949V20.0684C23.123 20.4622 22.9297 20.6592 22.543 20.6592H11.4033ZM25.1211 20.6592C24.7988 20.6592 24.6377 20.498 24.6377 20.1758V19.1875C24.6377 18.8724 24.7988 18.7148 25.1211 18.7148H26.0986C26.4209 18.7148 26.582 18.8724 26.582 19.1875V20.1758C26.582 20.498 26.4209 20.6592 26.0986 20.6592H25.1211Z" fill="black" style="fill:black;fill-opacity:1;"/>
</svg>
