<svg width="24" height="24" viewBox="0 0 24 24" fill="none" xmlns="http://www.w3.org/2000/svg">
<path d="M21 8.5H13H11" stroke="#1A1818" stroke-width="1.6" stroke-linecap="round" stroke-linejoin="round"/>
<path d="M19 15.5H15H11" stroke="#1A1818" stroke-width="1.6" stroke-linecap="round" stroke-linejoin="round"/>
<path d="M5.43359 11C5.12939 11 4.92773 10.7983 4.92773 10.4941C4.92773 10.1899 5.12939 9.98486 5.43018 9.98486H6.09326V7.52734H6.08301L5.81641 7.7085C5.60791 7.84521 5.49854 7.87598 5.36523 7.87598C5.10205 7.87598 4.91406 7.68457 4.91406 7.42139C4.91406 7.22314 5.03369 7.05566 5.25928 6.91211L5.79248 6.56689C6.07617 6.38574 6.37354 6.30029 6.64355 6.30029C7.11865 6.30029 7.42969 6.61816 7.42969 7.11035V9.98486H7.90479C8.19873 9.98486 8.40039 10.1899 8.40039 10.4941C8.40039 10.7983 8.19873 11 7.90137 11H5.43359Z" fill="#1A1818"/>
<path d="M4.80469 17.46C4.80469 17.2207 4.94141 17.0088 5.34131 16.6328L6.4248 15.5835C6.78369 15.2383 6.94092 15.0127 6.94092 14.7769C6.94092 14.5 6.73926 14.3154 6.44531 14.3154C6.21631 14.3154 6.05225 14.4146 5.87793 14.6606C5.68652 14.9136 5.54297 15.0024 5.3208 15.0024C5.00977 15.0024 4.79102 14.7939 4.79102 14.5C4.79102 13.8438 5.57031 13.2524 6.51709 13.2524C7.49805 13.2524 8.22266 13.8438 8.22266 14.6436C8.22266 15.1392 7.96631 15.604 7.41602 16.1064L6.56152 16.8994V16.9507H7.78516C8.15771 16.9507 8.39014 17.1523 8.39014 17.4805C8.39014 17.8052 8.16455 18 7.78516 18H5.41309C5.05078 18 4.80469 17.7812 4.80469 17.46Z" fill="#1A1818"/>
</svg>
