<svg width="16" height="21" viewBox="0 0 16 21" fill="none" xmlns="http://www.w3.org/2000/svg">
<path d="M3.26025 20.5532C2.48096 20.5532 1.88965 20.3413 1.48633 19.9175C1.08301 19.5005 0.881348 18.8716 0.881348 18.0308V10.7607C0.881348 9.92676 1.08301 9.30127 1.48633 8.88428C1.88965 8.46729 2.48096 8.25879 3.26025 8.25879H12.8579C13.6372 8.25879 14.2285 8.46729 14.6318 8.88428C15.0352 9.30127 15.2368 9.92676 15.2368 10.7607V18.0308C15.2368 18.8716 15.0352 19.5005 14.6318 19.9175C14.2285 20.3413 13.6372 20.5532 12.8579 20.5532H3.26025ZM3.54736 18.7075H12.5708C12.7827 18.7075 12.9468 18.6426 13.063 18.5127C13.1792 18.3896 13.2373 18.2051 13.2373 17.959V10.8428C13.2373 10.5967 13.1792 10.4121 13.063 10.2891C12.9468 10.166 12.7827 10.1045 12.5708 10.1045H3.54736C3.34229 10.1045 3.17822 10.166 3.05518 10.2891C2.93896 10.4121 2.88086 10.5967 2.88086 10.8428V17.959C2.88086 18.2051 2.93896 18.3896 3.05518 18.5127C3.17822 18.6426 3.34229 18.7075 3.54736 18.7075ZM2.75781 9.12012V5.85938C2.75781 4.59473 3.00391 3.53857 3.49609 2.69092C3.99512 1.83643 4.64795 1.19385 5.45459 0.763184C6.26123 0.33252 7.12939 0.117188 8.05908 0.117188C8.98877 0.117188 9.85693 0.33252 10.6636 0.763184C11.4702 1.19385 12.1196 1.83643 12.6118 2.69092C13.1108 3.53857 13.3604 4.59473 13.3604 5.85938V9.12012H11.4429V5.6748C11.4429 4.875 11.2856 4.20166 10.9712 3.65479C10.6636 3.10107 10.2534 2.68066 9.74072 2.39355C9.22803 2.10645 8.66748 1.96289 8.05908 1.96289C7.45068 1.96289 6.89014 2.10645 6.37744 2.39355C5.86475 2.68066 5.45459 3.10107 5.14697 3.65479C4.83936 4.20166 4.68555 4.875 4.68555 5.6748V9.12012H2.75781Z" fill="#3B80E8" style="fill:#3B80E8;fill:color(display-p3 0.2314 0.5020 0.9098);fill-opacity:1;"/>
</svg>
