<svg width="24" height="24" viewBox="0 0 24 24" fill="none" xmlns="http://www.w3.org/2000/svg">
<path fill-rule="evenodd" clip-rule="evenodd" d="M13 3.20001C12.5582 3.20001 12.2 3.55818 12.2 4.00001C12.2 4.44184 12.5582 4.80001 13 4.80001H17C17.6628 4.80001 18.2 5.33727 18.2 6.00001V18C18.2 18.6628 17.6628 19.2 17 19.2H13C12.5582 19.2 12.2 19.5582 12.2 20C12.2 20.4418 12.5582 20.8 13 20.8H17C18.5464 20.8 19.8 19.5464 19.8 18V6.00001C19.8 4.45361 18.5464 3.20001 17 3.20001H13ZM9.5657 8.5657C9.87812 8.25328 9.87812 7.74675 9.5657 7.43433C9.25328 7.12191 8.74675 7.12191 8.43433 7.43433L4.43433 11.4343C4.12191 11.7467 4.12191 12.2533 4.43433 12.5657L8.43433 16.5657C8.74675 16.8781 9.25328 16.8781 9.5657 16.5657C9.87812 16.2533 9.87812 15.7467 9.5657 15.4343L6.93138 12.8H14C14.4418 12.8 14.8 12.4418 14.8 12C14.8 11.5582 14.4418 11.2 14 11.2H6.93138L9.5657 8.5657Z" fill="#1A1818"/>
</svg>
