<svg xmlns="http://www.w3.org/2000/svg" viewBox="0 0 24 24" fill="none">
  <path d="M23.759 6.831c0 0-0.234-1.654-0.953-2.383c-0.913-0.955-1.936-0.96-2.405-1.017C16.042 3.189 12 3.189 12 3.189s-5.043 0-8.402 0.243c-0.469 0.056-1.492 0.062-2.405 1.018C0.474 5.177 0.24 6.831 0.24 6.831S0 8.447 0 10.389v2.401c0 1.942 0.24 3.631 0.24 3.631s0.234 1.653 0.953 2.382c0.913 0.956 2.112 0.926 2.646 1.026c1.92 0.184 8.16 0.161 8.16 0.161s5.043 0.072 8.402-0.17c0.469-0.056 1.492-0.061 2.405-1.017c0.718-0.728 0.953-2.382 0.953-2.382S24 14.732 24 12.79v-2.401C24 8.447 23.759 6.831 23.759 6.831zM8.8 14.794v-6.4l6.4 3.2L8.8 14.794z" fill="currentColor"/>
</svg>