<svg enable-background="new 0 0 218.2967 112" id="soundcloud" version="1.1" viewBox="0 0 218.2967 112" xml:space="preserve" xmlns="http://www.w3.org/2000/svg" xmlns:xlink="http://www.w3.org/1999/xlink"><g><path d="M187.7419,47.3613c-0.5076-0.0508-0.9684-0.0996-1.3828-0.1464C183.2967,20.4845,160.6563,0,133.4295,0   c-9.6368,0-24.5664,4.6077-31.4764,8.7285l-2.0236,1.2052l3.0625,101.84L192,112c16.4607,0,26.2967-16.7695,26.2967-32.9823   C218.2967,62.168,205.7343,49.1505,187.7419,47.3613z M192.0155,104l-55.828-0.2263h-25.4296l-2.6836-89.26   C114.5547,11.3417,126.16,8,133.4295,8c24.086,0,43.9492,18.8673,45.2148,42.9533l0.18,3.1227l3.07,0.596   c0,0,1.5784,0.3065,5.0588,0.6505c13.742,1.3672,23.3436,11.1112,23.3436,23.6952C210.2967,91.0333,203.3007,104,192.0155,104z"/><rect height="88" width="8" x="80" y="24"/><rect height="80" width="8" x="60" y="32"/><rect height="76" width="8" x="40" y="36"/><rect height="60" width="8" x="20" y="52"/><rect height="36" width="8" y="64"/></g></svg>