<svg width="24" height="24" viewBox="0 0 24 24" fill="none" xmlns="http://www.w3.org/2000/svg">
<g clip-path="url(#clip0_5263_19889)">
<path fill-rule="evenodd" clip-rule="evenodd" d="M22.6341 -0.51224C22.9035 -0.862444 22.838 -1.36472 22.4878 -1.63411C22.1376 -1.9035 21.6353 -1.83798 21.3659 -1.48778L1.36591 24.5122C1.09652 24.8624 1.16203 25.3647 1.51224 25.6341C1.86244 25.9035 2.36472 25.838 2.63411 25.4878L22.6341 -0.51224ZM12 1.2C13.765 1.2 15.4193 1.72691 16.8031 2.63974L15.8244 3.9121C14.7145 3.20586 13.3999 2.8 12 2.8C8.40445 2.8 5.37156 5.47738 4.92559 9.04518L4.06071 15.9642C3.97868 16.6204 4.49033 17.2 5.15161 17.2H5.6029L4.44395 18.7066C3.1813 18.3653 2.30213 17.1333 2.47306 15.7658L3.33795 8.84672C3.88401 4.47824 7.59753 1.2 12 1.2ZM18.8484 17.2H10.3971L8.31035 19.9128C8.7191 21.5706 10.216 22.8 12 22.8C14.0987 22.8 15.8 21.0987 15.8 19C15.8 18.9309 15.7913 18.8639 15.7748 18.8H18.8484C20.4721 18.8 21.7284 17.3769 21.527 15.7658L20.6621 8.84672C20.5054 7.59331 20.088 6.42965 19.4683 5.40742L18.4033 6.79195C18.7427 7.48434 18.9741 8.24221 19.0744 9.04518L19.9393 15.9642C20.0213 16.6204 19.5097 17.2 18.8484 17.2ZM9.77481 18.8C9.79126 18.8639 9.80001 18.9309 9.80001 19C9.80001 20.215 10.785 21.2 12 21.2C13.215 21.2 14.2 20.215 14.2 19C14.2 18.9309 14.2088 18.8639 14.2252 18.8H9.77481Z" fill="#1A1818" style="fill:#1A1818;fill:color(display-p3 0.1020 0.0941 0.0941);fill-opacity:1;"/>
</g>
<defs>
<clipPath id="clip0_5263_19889">
<rect width="24" height="24" fill="white" style="fill:white;fill-opacity:1;"/>
</clipPath>
</defs>
</svg>
