<svg width="32" height="32" viewBox="0 0 32 32" fill="none" xmlns="http://www.w3.org/2000/svg">
<path fill-rule="evenodd" clip-rule="evenodd" d="M26.6341 3.48776C26.9035 3.13756 26.838 2.63528 26.4878 2.36589C26.1376 2.0965 25.6353 2.16202 25.3659 2.51222L5.36589 28.5122C5.0965 28.8624 5.16202 29.3647 5.51222 29.6341C5.86243 29.9035 6.3647 29.838 6.63409 29.4878L26.6341 3.48776ZM16 5.2C17.765 5.2 19.4193 5.72691 20.8031 6.63974L19.8243 7.9121C18.7145 7.20586 17.3999 6.8 16 6.8C12.4044 6.8 9.37155 9.47738 8.92558 13.0452L8.06069 19.9642C7.97867 20.6204 8.49031 21.2 9.15159 21.2H9.60288L8.44393 22.7066C7.18129 22.3653 6.30211 21.1333 6.47305 19.7658L7.33793 12.8467C7.88399 8.47824 11.5975 5.2 16 5.2ZM22.8484 21.2H14.3971L12.3103 23.9128C12.7191 25.5706 14.216 26.8 16 26.8C18.0987 26.8 19.8 25.0987 19.8 23C19.8 22.9309 19.7912 22.8639 19.7748 22.8H22.8484C24.4721 22.8 25.7283 21.3769 25.5269 19.7658L24.6621 12.8467C24.5054 11.5933 24.0879 10.4296 23.4683 9.40742L22.4033 10.7919C22.7426 11.4843 22.974 12.2422 23.0744 13.0452L23.9393 19.9642C24.0213 20.6204 23.5097 21.2 22.8484 21.2ZM13.7748 22.8C13.7912 22.8639 13.8 22.9309 13.8 23C13.8 24.215 14.785 25.2 16 25.2C17.215 25.2 18.2 24.215 18.2 23C18.2 22.9309 18.2087 22.8639 18.2252 22.8H13.7748Z" fill="#1A1818" style="fill:#1A1818;fill:color(display-p3 0.1020 0.0941 0.0941);fill-opacity:1;"/>
</svg>
