<svg width="24" height="24" viewBox="0 0 24 24" fill="none" xmlns="http://www.w3.org/2000/svg">
<path fill-rule="evenodd" clip-rule="evenodd" d="M12 1.20001C7.59753 1.20001 3.884 4.47825 3.33794 8.84673L2.47306 15.7658C2.27166 17.3769 3.52792 18.8 5.1516 18.8H8.22521C8.20876 18.8639 8.20001 18.931 8.20001 19C8.20001 21.0987 9.90132 22.8 12 22.8C14.0987 22.8 15.8 21.0987 15.8 19C15.8 18.931 15.7913 18.8639 15.7748 18.8H18.8484C20.4721 18.8 21.7283 17.3769 21.527 15.7658L20.6621 8.84673C20.116 4.47825 16.4025 1.20001 12 1.20001ZM14.2252 18.8H9.7748C9.79125 18.8639 9.8 18.931 9.8 19C9.8 20.215 10.785 21.2 12 21.2C13.215 21.2 14.2 20.215 14.2 19C14.2 18.931 14.2088 18.8639 14.2252 18.8ZM4.92558 9.04519C5.37156 5.47739 8.40444 2.80001 12 2.80001C15.5956 2.80001 18.6285 5.47739 19.0744 9.04519L19.9393 15.9643C20.0213 16.6204 19.5097 17.2 18.8484 17.2H5.1516C4.49032 17.2 3.97868 16.6204 4.0607 15.9643L4.92558 9.04519Z" fill="#1A1818"/>
</svg>
