<svg width="24" height="24" viewBox="0 0 24 24" fill="none" xmlns="http://www.w3.org/2000/svg">
<path fill-rule="evenodd" clip-rule="evenodd" d="M5 2C3.34315 2 2 3.34315 2 5V19C2 20.6569 3.34315 22 5 22H19C20.6569 22 22 20.6569 22 19V5C22 3.34315 20.6569 2 19 2H5ZM7.25 7.25C7.25 9.73528 9.26472 11.75 11.75 11.75V7.25H7.25ZM14.5 11.75H12.25V7.25L14.5 7.25C15.7426 7.25 16.75 8.25736 16.75 9.5C16.75 10.7426 15.7426 11.75 14.5 11.75ZM7.25 16.75C7.25 14.2647 9.26472 12.25 11.75 12.25V16.75H7.25ZM14.5 16.75C15.7426 16.75 16.75 15.7426 16.75 14.5C16.75 13.2574 15.7426 12.25 14.5 12.25C13.2574 12.25 12.25 13.2574 12.25 14.5C12.25 15.7426 13.2574 16.75 14.5 16.75Z" fill="#1A1818" style="fill:#1A1818;fill:color(display-p3 0.1020 0.0941 0.0941);fill-opacity:1;"/>
</svg>
