<svg width="44" height="44" viewBox="0 0 44 44" fill="none" xmlns="http://www.w3.org/2000/svg">
<path d="M12.3101 25.6572C12.3101 24.3516 12.5972 23.2031 13.1714 22.2119C13.7388 21.2139 14.5693 20.4346 15.6631 19.874C16.7568 19.3135 18.083 19.0332 19.6416 19.0332H26.5322L29.7109 19.1768L29.5264 19.6484L26.9937 17.4849L24.0303 14.5933C23.9551 14.5112 23.897 14.4189 23.856 14.3164C23.8081 14.2139 23.7842 14.0977 23.7842 13.9678C23.7842 13.7012 23.8696 13.4858 24.0405 13.3218C24.2046 13.1509 24.4233 13.0654 24.6968 13.0654C24.9497 13.0654 25.1685 13.1611 25.353 13.3525L31.3823 19.269C31.4849 19.3647 31.5635 19.4707 31.6182 19.5869C31.666 19.7031 31.6899 19.8262 31.6899 19.9561C31.6899 20.0791 31.666 20.1987 31.6182 20.3149C31.5635 20.4312 31.4849 20.5371 31.3823 20.6328L25.353 26.5493C25.1685 26.7407 24.9497 26.8364 24.6968 26.8364C24.4233 26.8364 24.2046 26.7544 24.0405 26.5903C23.8696 26.4194 23.7842 26.2007 23.7842 25.9341C23.7842 25.8042 23.8081 25.688 23.856 25.5854C23.897 25.4829 23.9551 25.3906 24.0303 25.3086L26.9937 22.4272L29.5264 20.2534L29.7109 20.7251L26.5322 20.8687H19.4878C18.3188 20.8687 17.3379 21.0669 16.5449 21.4634C15.752 21.8599 15.1538 22.4136 14.7505 23.1245C14.3472 23.8286 14.1455 24.6387 14.1455 25.5547C14.1455 26.4775 14.3472 27.3013 14.7505 28.0259C15.1538 28.7505 15.752 29.3213 16.5449 29.7383C17.3379 30.1621 18.3188 30.374 19.4878 30.374H21.8462C22.1265 30.374 22.3521 30.4629 22.5229 30.6406C22.6938 30.8184 22.7793 31.0337 22.7793 31.2866C22.7793 31.5396 22.6938 31.7549 22.5229 31.9326C22.3521 32.1104 22.1265 32.1992 21.8462 32.1992H19.4775C17.9463 32.1992 16.6475 31.9258 15.5811 31.3789C14.5146 30.8389 13.7046 30.0767 13.1509 29.0923C12.5903 28.1147 12.3101 26.9697 12.3101 25.6572Z" fill="black"/>
</svg>
