<svg width="24" height="24" viewBox="0 0 24 24" fill="none" xmlns="http://www.w3.org/2000/svg">
<path fill-rule="evenodd" clip-rule="evenodd" d="M8.00165 6.35899C7.83308 6.5107 7.73682 6.72683 7.73682 6.95362C7.73682 7.18041 7.83308 7.39654 8.00165 7.54826L11.9365 11.0896C12.2649 11.3852 12.7707 11.3586 13.0663 11.0302C13.3619 10.7018 13.3353 10.1959 13.0068 9.90036L10.2701 7.43728C10.9308 7.31158 11.4107 7.23711 12.0094 7.22224C15.4749 7.22732 18.2827 10.0383 18.2827 13.505C18.2827 16.9748 15.4699 19.7877 12 19.7877C8.53013 19.7877 5.71725 16.9748 5.71725 13.505C5.71725 13.0631 5.35908 12.705 4.91725 12.705C4.47542 12.705 4.11725 13.0631 4.11725 13.505C4.11725 17.8585 7.64647 21.3877 12 21.3877C16.3535 21.3877 19.8827 17.8585 19.8827 13.505C19.8827 9.15146 16.3535 5.62223 12 5.62223L11.981 5.62246C11.6909 5.62934 11.4184 5.64905 11.1487 5.67924L13.0068 4.00689C13.3353 3.71132 13.3619 3.20549 13.0663 2.87708C12.7707 2.54867 12.2649 2.52205 11.9365 2.81762L8.00165 6.35899Z" fill="#1A1818" style="fill:#1A1818;fill:color(display-p3 0.1020 0.0941 0.0941);fill-opacity:1;"/>
</svg>
