<svg width="24" height="24" viewBox="0 0 24 24" fill="none" xmlns="http://www.w3.org/2000/svg">
<path fill-rule="evenodd" clip-rule="evenodd" d="M19.4 10.5C19.4 13.7585 16.7585 16.4 13.5 16.4C10.2415 16.4 7.60001 13.7585 7.60001 10.5C7.60001 7.24152 10.2415 4.6 13.5 4.6C16.7585 4.6 19.4 7.24152 19.4 10.5ZM21 10.5C21 14.6421 17.6421 18 13.5 18C11.7171 18 10.0795 17.3779 8.79247 16.3389L8.5657 16.5657L4.5657 20.5657C4.25328 20.8781 3.74675 20.8781 3.43433 20.5657C3.12191 20.2533 3.12191 19.7467 3.43433 19.4343L7.43433 15.4343L7.6611 15.2075C6.62212 13.9205 6.00001 12.2829 6.00001 10.5C6.00001 6.35786 9.35788 3 13.5 3C17.6421 3 21 6.35786 21 10.5Z" fill="#1A1818" style="fill:#1A1818;fill:color(display-p3 0.1020 0.0941 0.0941);fill-opacity:1;"/>
</svg>
