<svg width="24" height="24" viewBox="0 0 24 24" fill="none" xmlns="http://www.w3.org/2000/svg">
<path fill-rule="evenodd" clip-rule="evenodd" d="M19.5931 2.54868C19.7132 1.48417 18.5664 0.739467 17.6428 1.28212L0.98837 11.0668C-0.303102 11.8256 -0.156884 13.7378 1.23493 14.2914L8.66236 17.2456L14.3822 22.8293C15.454 23.8756 17.2604 23.2315 17.4282 21.743L19.5931 2.54868ZM1.79887 12.4464L17.9359 2.96558L15.8383 21.5637C15.8197 21.7291 15.619 21.8007 15.4999 21.6844L10.0428 16.3572L12.392 11.5138C12.5204 11.2491 12.1655 11.0186 11.9759 11.2436L8.44229 15.4362L1.82626 12.8047C1.67161 12.7431 1.65537 12.5307 1.79887 12.4464Z" fill="#1A1818" style="fill:#1A1818;fill:color(display-p3 0.1020 0.0941 0.0941);fill-opacity:1;"/>
</svg>
