<svg width="24" height="24" viewBox="0 0 24 24" fill="none" xmlns="http://www.w3.org/2000/svg">
<path fill-rule="evenodd" clip-rule="evenodd" d="M19.5931 2.54868C19.7131 1.48417 18.5664 0.739467 17.6427 1.28212L0.988339 11.0668C-0.303132 11.8256 -0.156914 13.7378 1.23489 14.2914L8.66233 17.2456L14.3822 22.8293C15.454 23.8756 17.2603 23.2315 17.4282 21.743L19.5931 2.54868ZM1.79884 12.4464L17.9359 2.96558L15.8383 21.5637C15.8196 21.7291 15.6189 21.8007 15.4998 21.6844L10.0427 16.3572L12.392 11.5138C12.5204 11.2491 12.1655 11.0186 11.9759 11.2436L8.44226 15.4362L1.82623 12.8047C1.67158 12.7431 1.65534 12.5307 1.79884 12.4464Z" fill="#1A1818"/>
</svg>
