<svg width="24" height="24" viewBox="0 0 24 24" fill="none" xmlns="http://www.w3.org/2000/svg">
<path fill-rule="evenodd" clip-rule="evenodd" d="M11.2736 5.23834L10.0123 2.68743C9.77008 2.19751 9.02998 2.39581 9.06515 2.94122L9.24822 5.7798C8.8015 5.97772 8.38009 6.22235 7.99018 6.50749L5.62233 4.92893C5.16758 4.62576 4.62579 5.16756 4.92895 5.6223L6.50752 7.99015C6.22237 8.38006 5.97774 8.80148 5.77983 9.24819L2.94127 9.06513C2.39586 9.02995 2.19755 9.77006 2.68747 10.0123L5.23836 11.2736C5.21301 11.5122 5.20001 11.7546 5.20001 12C5.20001 12.2454 5.21301 12.4877 5.23836 12.7264L2.68746 13.9877C2.19754 14.2299 2.39585 14.97 2.94125 14.9349L5.77983 14.7518C5.97775 15.1985 6.22237 15.6199 6.50752 16.0098L4.92896 18.3777C4.62579 18.8324 5.16759 19.3742 5.62233 19.0711L7.99017 17.4925C8.38008 17.7776 8.80148 18.0223 9.24819 18.2202L9.06512 21.0588C9.02995 21.6042 9.77005 21.8025 10.0123 21.3126L11.2736 18.7617C11.5123 18.787 11.7546 18.8 12 18.8C12.2454 18.8 12.4878 18.787 12.7264 18.7617L13.9877 21.3126C14.23 21.8025 14.9701 21.6042 14.9349 21.0588L14.7518 18.2202C15.1985 18.0223 15.6199 17.7776 16.0099 17.4925L18.3777 19.0711C18.8324 19.3742 19.3742 18.8324 19.0711 18.3777L17.4925 16.0098C17.7777 15.6199 18.0223 15.1985 18.2202 14.7518L21.0588 14.9349C21.6042 14.97 21.8025 14.2299 21.3126 13.9877L18.7617 12.7264C18.787 12.4877 18.8 12.2454 18.8 12C18.8 11.7546 18.787 11.5122 18.7617 11.2736L21.3126 10.0123C21.8025 9.77004 21.6042 9.02994 21.0588 9.06511L18.2202 9.24818C18.0223 8.80147 17.7776 8.38006 17.4925 7.99015L19.0711 5.6223C19.3742 5.16756 18.8324 4.62576 18.3777 4.92893L16.0098 6.50749C15.6199 6.22236 15.1985 5.97774 14.7518 5.77982L14.9349 2.94124C14.9701 2.39583 14.23 2.19752 13.9877 2.68744L12.7265 5.23834C12.4878 5.213 12.2454 5.2 12 5.2C11.7546 5.2 11.5123 5.213 11.2736 5.23834ZM6.80001 12C6.80001 9.12812 9.12813 6.8 12 6.8C14.8719 6.8 17.2 9.12812 17.2 12C17.2 14.8719 14.8719 17.2 12 17.2C9.12813 17.2 6.80001 14.8719 6.80001 12Z" fill="#1A1818" style="fill:#1A1818;fill:color(display-p3 0.1020 0.0941 0.0941);fill-opacity:1;"/>
</svg>
