<svg width="24" height="24" viewBox="0 0 24 24" fill="none" xmlns="http://www.w3.org/2000/svg">
<path fill-rule="evenodd" clip-rule="evenodd" d="M11.5097 2.49029L11.0504 4.78691L10.0123 2.68743C9.77009 2.19751 9.02999 2.39582 9.06516 2.94122L9.2159 5.27851L7.66978 3.51921C7.309 3.10868 6.64544 3.49178 6.82057 4.0095L7.5711 6.2281L5.62235 4.92893C5.1676 4.62577 4.62581 5.16756 4.92897 5.62231L6.22816 7.57109L4.00953 6.82055C3.49182 6.64542 3.10871 7.30897 3.51924 7.66976L5.27852 9.21586L2.94128 9.06513C2.39587 9.02995 2.19756 9.77006 2.68748 10.0123L4.78697 11.0504L2.49032 11.5097C1.9544 11.6169 1.9544 12.3831 2.49032 12.4903L4.78697 12.9496L2.68748 13.9877C2.19756 14.2299 2.39587 14.97 2.94127 14.9349L5.27853 14.7841L3.51924 16.3302C3.10871 16.691 3.49182 17.3546 4.00953 17.1795L6.22815 16.4289L4.92897 18.3777C4.62581 18.8324 5.1676 19.3742 5.62234 19.0711L7.57105 17.7719L6.82054 19.9905C6.6454 20.5082 7.30896 20.8913 7.66975 20.4808L9.21587 18.7215L9.06513 21.0588C9.02995 21.6042 9.77006 21.8025 10.0123 21.3126L11.0504 19.213L11.5097 21.5097C11.6169 22.0456 12.3831 22.0456 12.4903 21.5097L12.9496 19.2131L13.9877 21.3126C14.23 21.8025 14.9701 21.6042 14.9349 21.0588L14.7842 18.7215L16.3303 20.4808C16.6911 20.8913 17.3546 20.5082 17.1795 19.9905L16.429 17.7719L18.3777 19.0711C18.8325 19.3742 19.3743 18.8324 19.0711 18.3777L17.7719 16.4289L19.9905 17.1794C20.5082 17.3546 20.8913 16.691 20.4808 16.3302L18.7215 14.7841L21.0588 14.9349C21.6042 14.97 21.8025 14.2299 21.3126 13.9877L19.2131 12.9496L21.5097 12.4903C22.0457 12.3831 22.0457 11.6169 21.5097 11.5097L19.2131 11.0504L21.3126 10.0123C21.8025 9.77005 21.6042 9.02994 21.0588 9.06512L18.7215 9.21585L20.4808 7.66975C20.8913 7.30896 20.5082 6.6454 19.9905 6.82054L17.7719 7.57107L19.0711 5.62231C19.3743 5.16756 18.8325 4.62577 18.3777 4.92893L16.429 6.22806L17.1795 4.00951C17.3547 3.4918 16.6911 3.10869 16.3303 3.51922L14.7842 5.27852L14.9349 2.94123C14.9701 2.39583 14.23 2.19752 13.9878 2.68744L12.9497 4.78698L12.4903 2.49029C12.3831 1.95437 11.6169 1.95437 11.5097 2.49029ZM6.80003 12C6.80003 9.12812 9.12815 6.8 12 6.8C14.8719 6.8 17.2 9.12812 17.2 12C17.2 14.8719 14.8719 17.2 12 17.2C9.12815 17.2 6.80003 14.8719 6.80003 12Z" fill="#1A1818" style="fill:#1A1818;fill:color(display-p3 0.1020 0.0941 0.0941);fill-opacity:1;"/>
</svg>
