<svg width="24" height="24" viewBox="0 0 24 24" fill="none" xmlns="http://www.w3.org/2000/svg">
<path fill-rule="evenodd" clip-rule="evenodd" d="M19.433 13.036c.029-.34.045-.684.045-1.036 0-.352-.016-.696-.046-1.036l2.203-1.722a.5.5 0 00.11-.63l-2.108-3.653a.5.5 0 00-.613-.225l-2.598 1.04a8.998 8.998 0 00-1.79-1.036l-.396-2.77a.5.5 0 00-.497-.428H9.26a.5.5 0 00-.497.428l-.396 2.77a8.998 8.998 0 00-1.79 1.036l-2.598-1.04a.5.5 0 00-.613.225L1.758 8.612a.5.5 0 00.11.63l2.203 1.722c-.03.34-.046.684-.046 1.036 0 .352.016.696.046 1.036l-2.203 1.722a.5.5 0 00-.11.63l2.108 3.653a.5.5 0 00.613.225l2.598-1.04c.554.404 1.145.745 1.79 1.036l.396 2.77a.5.5 0 00.497.428h3.48a.5.5 0 00.497-.428l.396-2.77a8.998 8.998 0 001.79-1.036l2.598 1.04a.5.5 0 00.613-.225l2.108-3.653a.5.5 0 00-.11-.63l-2.203-1.722zM12 15.6a3.6 3.6 0 110-7.2 3.6 3.6 0 010 7.2z" fill="#1A1818"/>
</svg>
