<svg width="24" height="24" viewBox="0 0 24 24" fill="none" xmlns="http://www.w3.org/2000/svg">
<path fill-rule="evenodd" clip-rule="evenodd" d="M12.8252 3.125C13.0583 3.125 13.2527 3.19081 13.4082 3.32227C13.5696 3.45379 13.6776 3.63321 13.7314 3.86035L14.1982 5.86133C14.3835 5.92111 14.5573 5.98405 14.7188 6.0498C14.8859 6.1155 15.0412 6.18703 15.1846 6.26465L16.9434 5.17969C17.1347 5.06008 17.3262 5.01502 17.5176 5.04492C17.7149 5.07486 17.8971 5.16499 18.0645 5.31445L19.2402 6.47168C19.4074 6.63307 19.4968 6.81537 19.5088 7.01855C19.5207 7.22176 19.4671 7.42191 19.3477 7.61914L18.2891 9.36035C18.3488 9.50377 18.4118 9.65605 18.4775 9.81738C18.5493 9.97887 18.615 10.1525 18.6748 10.3379L20.6484 10.8135C20.8757 10.8673 21.0522 10.9753 21.1777 11.1367C21.3092 11.2922 21.375 11.4838 21.375 11.7109V13.334C21.375 13.5672 21.3093 13.7653 21.1777 13.9268C21.0522 14.0821 20.8756 14.1864 20.6484 14.2402L18.6562 14.7158C18.6025 14.8772 18.5433 15.0388 18.4775 15.2002C18.4177 15.3617 18.3483 15.5203 18.2705 15.6758L19.3291 17.3896C19.4606 17.5809 19.515 17.7839 19.4912 17.999C19.4733 18.2143 19.3832 18.403 19.2217 18.5645L18.0645 19.7129C17.9031 19.8742 17.7179 19.9644 17.5088 19.9824C17.3054 20.0004 17.1074 19.9487 16.916 19.8291L15.1846 18.7705C15.0351 18.8423 14.8764 18.9118 14.709 18.9775C14.5417 19.0433 14.3715 19.1063 14.1982 19.166L13.7314 21.1396C13.6776 21.3728 13.5696 21.5522 13.4082 21.6777C13.2527 21.8092 13.0583 21.875 12.8252 21.875H11.1748C10.9417 21.875 10.7444 21.8091 10.583 21.6777C10.4276 21.5522 10.3196 21.3727 10.2598 21.1396L9.79297 19.166C9.61952 19.1062 9.44871 19.0433 9.28125 18.9775C9.11396 18.9118 8.95602 18.8422 8.80664 18.7705L7.08398 19.8291C6.88662 19.9487 6.68296 20.0004 6.47363 19.9824C6.27035 19.9645 6.0882 19.8743 5.92676 19.7129L4.77832 18.5645C4.61684 18.403 4.52392 18.2143 4.5 17.999C4.48215 17.7839 4.5394 17.5809 4.6709 17.3896L5.71973 15.6758C5.64799 15.5203 5.57944 15.3616 5.51367 15.2002C5.44792 15.0388 5.39158 14.8772 5.34375 14.7158L3.35156 14.2402C3.1185 14.1864 2.93904 14.0821 2.81348 13.9268C2.68788 13.7653 2.625 13.5672 2.625 13.334V11.7109C2.625 11.4838 2.68797 11.2922 2.81348 11.1367C2.93905 10.9753 3.11837 10.8673 3.35156 10.8135L5.3252 10.3379C5.37902 10.1525 5.43909 9.97887 5.50488 9.81738C5.57657 9.65607 5.64239 9.50376 5.70215 9.36035L4.65234 7.61914C4.52693 7.42191 4.47047 7.22176 4.48242 7.01855C4.50035 6.81538 4.59256 6.63306 4.75977 6.47168L5.92676 5.31445C6.08824 5.15297 6.26748 5.06006 6.46484 5.03613C6.66217 5.01224 6.85931 5.0601 7.05664 5.17969L8.79688 6.25586C8.94629 6.17816 9.10513 6.10677 9.27246 6.04102C9.44583 5.96928 9.6196 5.90354 9.79297 5.84375L10.2598 3.86035C10.3196 3.63323 10.4276 3.45378 10.583 3.32227C10.7444 3.19087 10.9417 3.125 11.1748 3.125H12.8252ZM12 8.0625C9.54924 8.0625 7.5625 10.0492 7.5625 12.5C7.5625 14.9508 9.54924 16.9375 12 16.9375C14.4508 16.9375 16.4375 14.9508 16.4375 12.5C16.4375 10.0492 14.4508 8.0625 12 8.0625Z" fill="#1A1818" />
</svg>
