<svg width="24" height="24" viewBox="0 0 24 24" fill="none" xmlns="http://www.w3.org/2000/svg">
<path d="M3.3806 12.4025C3.24601 12.2528 3.12839 12.1174 3.02888 12C3.12839 11.8826 3.24601 11.7472 3.3806 11.5975C3.86756 11.0562 4.57175 10.3352 5.43946 9.61592C7.19759 8.15862 9.51708 6.8 12 6.8C14.4829 6.8 16.8024 8.15862 18.5605 9.61592C19.4283 10.3352 20.1324 11.0562 20.6194 11.5975C20.754 11.7472 20.8716 11.8826 20.9711 12C20.8716 12.1174 20.754 12.2528 20.6194 12.4025C20.1324 12.9438 19.4283 13.6648 18.5605 14.3841C16.8024 15.8414 14.4829 17.2 12 17.2C9.51708 17.2 7.19759 15.8414 5.43946 14.3841C4.57175 13.6648 3.86756 12.9438 3.3806 12.4025Z" stroke="#1A1818" stroke-width="1.6"/>
<circle cx="12" cy="12" r="3" fill="#1A1818"/>
</svg>
