<svg width="32" height="32" viewBox="0 0 32 32" fill="none" xmlns="http://www.w3.org/2000/svg">
<path fill-rule="evenodd" clip-rule="evenodd" d="M21.4544 3.8049C19.48 -1.2683 12.52 -1.2683 10.5456 3.8049C9.70485 5.96528 7.73986 7.43841 5.48885 7.5959C0.202814 7.96574 -1.94797 14.7961 2.11785 18.3013C3.84924 19.794 4.5998 22.1776 4.04936 24.4353C2.75676 29.7371 8.38759 33.9584 12.8747 31.0516C14.7856 29.8137 17.2144 29.8137 19.1253 31.0516C23.6124 33.9584 29.2432 29.7371 27.9506 24.4353C27.4002 22.1776 28.1508 19.794 29.8822 18.3013C33.948 14.7961 31.7972 7.96574 26.5112 7.5959C24.2601 7.43841 22.2952 5.96527 21.4544 3.8049ZM16 18C16.8033 18 17.4545 17.3284 17.4545 16.5C17.4545 15.6716 16.8033 15 16 15C15.1967 15 14.5455 15.6716 14.5455 16.5C14.5455 17.3284 15.1967 18 16 18Z" fill="#1A1818" style="fill:#1A1818;fill:color(display-p3 0.1020 0.0941 0.0941);fill-opacity:1;"/>
</svg>
