<svg width="16" height="16" viewBox="0 0 16 16" fill="none" xmlns="http://www.w3.org/2000/svg">
<path d="M13.7145 2H2.28553C1.02486 2 0 3.02012 0 4.27615V9.96522C0 11.22 1.02486 12.2414 2.28553 12.2414H3.04737C3.67965 12.2414 4.66305 12.6458 5.11005 13.0917L6.38367 14.3607C6.81383 14.7897 7.38781 15.0256 8.00065 15.0256C8.61349 15.0256 9.18617 14.7897 9.61633 14.3607L10.89 13.0917C11.337 12.6471 12.3204 12.2414 12.9526 12.2414H13.7145C14.9751 12.2414 16 11.2213 16 9.96522V4.27615C16 3.02142 14.9751 2 13.7145 2" fill="#2A395F"/>
</svg>
