<svg fill="#000000" xmlns="http://www.w3.org/2000/svg" viewBox="0 0 24 24">
  <path d="M11.0833 17.9583V16.5833C11.0833 16.0771 11.4937 15.6667 12 15.6667C12.5063 15.6667 12.9167 16.0771 12.9167 16.5833V17.9583C12.9167 20.7428 15.1739 23 17.9583 23C20.7428 23 23 20.7428 23 17.9583C23 15.1739 20.7428 12.9167 17.9583 12.9167H16.5833V13.8333C16.5833 14.3396 16.1729 14.75 15.6667 14.75C15.1604 14.75 14.75 14.3396 14.75 13.8333V10.1667C14.75 9.66041 15.1604 9.25 15.6667 9.25C16.1729 9.25 16.5833 9.66041 16.5833 10.1667V11.0833H17.9583C20.7428 11.0833 23 8.8261 23 6.04167C23 3.25723 20.7428 1 17.9583 1C15.1739 1 12.9167 3.25723 12.9167 6.04167V7.41667C12.9167 7.92293 12.5063 8.33333 12 8.33333C11.4937 8.33333 11.0833 7.92293 11.0833 7.41667V6.04167C11.0833 3.25723 8.8261 1 6.04167 1C3.25723 1 1 3.25723 1 6.04167C1 8.8261 3.25723 11.0833 6.04167 11.0833H7.41667V10.1667C7.41667 9.66041 7.82707 9.25 8.33333 9.25C8.83959 9.25 9.25 9.66041 9.25 10.1667V13.8333C9.25 14.3396 8.83959 14.75 8.33333 14.75C7.82707 14.75 7.41667 14.3396 7.41667 13.8333V12.9167H6.04167C3.25723 12.9167 1 15.1739 1 17.9583C1 20.7428 3.25723 23 6.04167 23C8.8261 23 11.0833 20.7428 11.0833 17.9583Z" />
</svg>