<svg width="16" height="16" viewBox="0 0 16 16" fill="none" xmlns="http://www.w3.org/2000/svg">
<path d="M0 9.27057V9.15611C0.031914 9.13835 0.0367525 9.09494 0.0696336 9.07718C0.131384 9.03616 0.196035 8.99988 0.263052 8.96864C0.372333 8.9272 0.480642 8.88378 0.590891 8.84826C0.698859 8.81028 0.809842 8.78189 0.922602 8.76341C1.01341 8.7506 1.10349 8.73281 1.19242 8.71012C1.28782 8.68223 1.38469 8.65983 1.48255 8.64303C1.78196 8.60095 2.08361 8.57755 2.38581 8.57297C2.62357 8.56571 2.86124 8.59025 3.09275 8.64599C3.22524 8.67954 3.3587 8.71703 3.49313 8.74466C3.70656 8.78417 3.9119 8.86024 4.10046 8.96963C4.38479 9.13145 4.66911 9.29129 4.9428 9.47087C5.16634 9.60324 5.37601 9.75864 5.56851 9.93462C5.64201 10.0086 5.72711 10.0718 5.7948 10.1527C5.88087 10.2573 5.97082 10.3579 6.06462 10.4536C6.16597 10.5546 6.25672 10.666 6.33541 10.7862C6.40833 10.8816 6.47091 10.9848 6.52206 11.094C6.56716 11.2082 6.62083 11.3187 6.6826 11.4245C6.73844 11.5168 6.7817 11.6164 6.81122 11.7206C6.8155 11.7369 6.82271 11.7523 6.83249 11.7659C6.83896 11.777 6.84875 11.7857 6.86042 11.7907C6.87209 11.7956 6.88501 11.7967 6.89729 11.7936C6.91157 11.7903 6.92449 11.7826 6.93422 11.7714C6.94394 11.7603 6.94996 11.7463 6.95144 11.7314C6.95241 11.7143 6.95241 11.6972 6.95144 11.6801V9.86062C6.95144 9.70571 6.92726 9.6692 6.7822 9.61888C6.66228 9.57744 6.5414 9.536 6.41955 9.50245C6.03469 9.39644 5.67193 9.2199 5.34898 8.98147C5.08429 8.7955 4.8441 8.57565 4.63429 8.32728C4.60915 8.29571 4.58111 8.26808 4.55306 8.23848C3.76869 7.42322 3.29423 6.3498 3.21461 5.21028C3.17934 4.75603 3.20931 4.29897 3.30358 3.85356C3.52354 2.79366 4.08447 1.8392 4.89719 1.14194C5.70992 0.444676 6.72777 0.0446335 7.78894 0.00541238C8.19326 -0.0148131 8.5984 0.0217078 8.99298 0.113951C9.66137 0.262033 10.2901 0.556841 10.8356 0.977886C11.381 1.39893 11.8301 1.93611 12.1515 2.5521C12.4733 3.14599 12.6628 3.80495 12.7066 4.48209C12.7373 4.89555 12.7165 5.31131 12.6447 5.71942C12.6147 5.88913 12.5693 6.0549 12.5325 6.22264C12.5047 6.3534 12.4668 6.48173 12.4194 6.60647C12.2844 6.9446 12.1227 7.27096 11.9358 7.58232C11.8484 7.73217 11.7494 7.8747 11.6399 8.00858C11.5836 8.07413 11.5306 8.14263 11.4813 8.21381C11.4572 8.24858 11.4282 8.27951 11.3952 8.30557C11.2444 8.42891 11.0925 8.55225 10.9436 8.67855C10.6414 8.94339 10.3066 9.16665 9.94749 9.3426C9.73879 9.44892 9.51877 9.53037 9.2918 9.58533C9.24305 9.59559 9.19494 9.60877 9.14771 9.6248C9.11654 9.63452 9.08876 9.65317 9.06767 9.67854C9.04658 9.7039 9.03308 9.73491 9.02876 9.76787C9.02169 9.8119 9.01845 9.85647 9.01908 9.90108C9.0107 10.5681 9.00264 11.2354 8.9949 11.9031C8.9949 11.914 8.9949 11.9248 8.9949 11.9347C8.99531 11.9487 9.00001 11.9622 9.00834 11.9734C9.01666 11.9845 9.0282 11.9927 9.04133 11.9968C9.05512 12.0026 9.07045 12.0032 9.08462 11.9985C9.09879 11.9938 9.11087 11.9841 9.11869 11.9712C9.13707 11.9455 9.15254 11.9179 9.16995 11.8913C9.50533 11.39 9.89244 10.9269 10.3247 10.5099C10.5864 10.2563 10.8789 10.0381 11.195 9.86062C11.3565 9.77083 11.5161 9.68005 11.6728 9.58237C11.8167 9.49251 11.9659 9.41178 12.1196 9.34063C12.4 9.2094 12.6911 9.10777 12.9784 8.99429C13.2818 8.87309 13.6051 8.81181 13.9309 8.81373C14.137 8.81207 14.343 8.82625 14.547 8.85616C14.6495 8.87096 14.7491 8.90352 14.8516 8.91733C14.945 8.9264 15.0374 8.94491 15.1272 8.97259C15.1997 8.99872 15.2745 9.01756 15.3506 9.02883L15.5905 9.06731C15.6579 9.07568 15.723 9.09803 15.7817 9.13299C15.8404 9.16794 15.8915 9.21476 15.9318 9.27057C15.9654 9.31136 15.9872 9.36091 15.9947 9.41364C16.0069 9.51113 15.998 9.61015 15.9686 9.70374C15.9493 9.758 15.9338 9.81227 15.9183 9.86753C15.8661 10.058 15.8216 10.2514 15.7616 10.4378C15.6132 10.8939 15.4292 11.337 15.2114 11.763C15.1196 11.9398 15.0111 12.1071 14.8874 12.2623C14.796 12.3753 14.712 12.4943 14.6359 12.6185C14.5025 12.8343 14.3514 13.0383 14.1843 13.2282C14.0501 13.377 13.9236 13.5328 13.8052 13.695C13.6762 13.8779 13.528 14.046 13.3633 14.1962C13.0062 14.5258 12.6229 14.8245 12.2173 15.0892C11.8933 15.3025 11.5452 15.4747 11.1805 15.6023C11.0123 15.6595 10.8391 15.7009 10.6709 15.7522C10.4659 15.8183 10.2628 15.8864 10.0597 15.9565C9.95298 15.998 9.83745 16.0101 9.72472 15.9916C9.61199 15.973 9.50603 15.9245 9.41752 15.8509C9.38561 15.8262 9.35466 15.8016 9.32081 15.7779C9.16642 15.6607 8.99971 15.5614 8.82374 15.4819C8.52039 15.3444 8.18514 15.2972 7.85665 15.3457C7.66323 15.3763 7.46981 15.4197 7.27639 15.4621C7.13434 15.4936 7.00171 15.5592 6.88956 15.6536C6.8354 15.6999 6.77834 15.7424 6.72031 15.7838C6.66463 15.8242 6.60419 15.8574 6.54043 15.8825C6.50214 15.8995 6.46054 15.9074 6.4188 15.9056C6.37706 15.9037 6.33629 15.8921 6.29963 15.8716C6.21065 15.8253 6.11975 15.7828 6.02884 15.7414C5.84219 15.6565 5.65264 15.5786 5.47373 15.4789C5.36012 15.416 5.24253 15.361 5.12171 15.3141C4.98922 15.2683 4.85997 15.2133 4.73488 15.1494C4.29485 14.9027 3.86449 14.6452 3.44671 14.36C3.11983 14.1311 2.8152 13.8726 2.5038 13.6229C2.44483 13.5761 2.38954 13.5246 2.33842 13.469C2.22044 13.3437 2.10536 13.2164 1.99027 13.0881C1.94969 13.0487 1.91248 13.0058 1.87906 12.9599C1.58313 12.4941 1.26689 12.0432 0.964192 11.5785C0.504723 10.9089 0.185693 10.1497 0.0270814 9.34852C0.0213493 9.32147 0.0122464 9.29527 0 9.27057V9.27057ZM7.60036 5.23692C7.60545 5.34295 7.6503 5.44292 7.72564 5.51612C7.80099 5.58933 7.90104 5.63016 8.00509 5.63016C8.10913 5.63016 8.20918 5.58933 8.28453 5.51612C8.35987 5.44292 8.40474 5.34295 8.40982 5.23692C8.4125 5.18099 8.40402 5.1251 8.38489 5.07262C8.36576 5.02014 8.33638 4.97217 8.29853 4.93162C8.26068 4.89107 8.21516 4.85879 8.16472 4.83673C8.11428 4.81467 8.05996 4.8033 8.00509 4.8033C7.95021 4.8033 7.89591 4.81467 7.84547 4.83673C7.79502 4.85879 7.7495 4.89107 7.71165 4.93162C7.67381 4.97217 7.64443 5.02014 7.6253 5.07262C7.60617 5.1251 7.59768 5.18099 7.60036 5.23692V5.23692Z" fill="#D05C2A"/>
</svg>
