<svg width="24" height="24" viewBox="0 0 24 24" fill="none" xmlns="http://www.w3.org/2000/svg">
<path d="M71.75 36.5H95.5C97.9853 36.5 100 38.5147 100 41V95.5C100 97.9853 97.9853 100 95.5 100H4.5C2.01472 100 0 97.9853 0 95.5V41C0 38.5147 2.01472 36.5 4.5 36.5H28.25C29.9069 36.5 31.25 37.8432 31.25 39.5V53.625C31.25 55.0748 32.4253 56.25 33.875 56.25C35.3247 56.25 36.5 55.0748 36.5 53.625V37.5C36.5 34.0482 33.7018 31.25 30.25 31.25H4.5C2.01472 31.25 0 29.2353 0 26.75V4.50003C0 2.01475 2.01472 3.05176e-05 4.5 3.05176e-05H95.5C97.9853 3.05176e-05 100 2.01475 100 4.50003V26.75C100 29.2353 97.9853 31.25 95.5 31.25H69.75C66.2982 31.25 63.5 34.0482 63.5 37.5V53.625C63.5 55.0748 64.6753 56.25 66.125 56.25C67.5747 56.25 68.75 55.0748 68.75 53.625V39.5C68.75 37.8432 70.0931 36.5 71.75 36.5Z" fill="black"/>
</svg>
